<svg id="svg" version="1.1" xmlns="http://www.w3.org/2000/svg" xmlns:xlink="http://www.w3.org/1999/xlink" width="400" height="313.40206185567007" viewBox="0, 0, 400,313.40206185567007"><g id="svgg"><path id="path0" d="M203.292 21.317 C 203.185 21.489,202.762 21.630,202.351 21.630 C 201.940 21.630,201.517 21.771,201.411 21.944 C 201.304 22.116,201.076 22.257,200.903 22.257 C 200.731 22.257,200.656 22.151,200.736 22.022 C 201.015 21.575,195.479 21.970,194.964 22.434 C 194.575 22.785,194.393 22.796,194.080 22.488 C 193.766 22.179,193.706 22.194,193.786 22.561 C 193.862 22.905,193.631 22.998,192.868 22.929 C 192.264 22.874,191.850 22.981,191.850 23.192 C 191.850 23.388,192.012 23.447,192.211 23.324 C 192.437 23.185,192.488 23.238,192.347 23.468 C 192.222 23.670,192.000 23.761,191.853 23.670 C 191.707 23.579,191.380 23.711,191.128 23.963 C 190.876 24.215,190.583 24.334,190.476 24.227 C 190.293 24.045,190.231 24.226,190.157 25.157 C 190.139 25.372,190.018 25.628,189.888 25.725 C 189.244 26.204,189.493 28.369,190.204 28.470 C 191.105 28.598,191.109 29.292,190.212 29.920 C 189.427 30.470,188.401 30.568,188.401 30.094 C 188.401 29.922,187.872 29.778,187.226 29.776 C 186.351 29.772,186.171 29.693,186.520 29.467 C 187.472 28.852,185.309 29.140,184.169 29.781 C 183.068 30.399,181.504 30.629,181.505 30.172 C 181.506 30.043,180.413 29.993,179.076 30.061 C 177.351 30.149,176.873 30.254,177.429 30.422 L 178.213 30.659 177.370 30.690 C 176.906 30.707,176.448 30.847,176.353 31.000 C 176.258 31.154,175.679 31.212,175.066 31.129 C 174.452 31.047,173.711 31.083,173.417 31.210 C 173.124 31.337,172.547 31.408,172.136 31.367 C 171.725 31.326,171.266 31.481,171.117 31.712 C 170.892 32.062,170.801 32.062,170.577 31.714 C 170.362 31.381,170.264 31.407,170.099 31.837 C 169.985 32.135,169.802 32.289,169.692 32.179 C 169.583 32.070,169.304 32.137,169.073 32.330 C 168.760 32.589,168.652 32.580,168.652 32.293 C 168.652 32.047,168.454 31.991,168.103 32.139 C 167.802 32.266,166.603 32.372,165.439 32.374 C 164.275 32.376,163.323 32.515,163.323 32.683 C 163.323 32.851,162.974 32.922,162.549 32.840 C 162.123 32.759,161.842 32.802,161.925 32.937 C 162.008 33.071,160.957 33.227,159.589 33.283 C 158.222 33.340,157.160 33.329,157.230 33.260 C 157.436 33.056,155.781 32.288,155.135 32.288 C 154.810 32.288,154.017 32.006,153.373 31.661 C 152.730 31.317,152.025 31.034,151.807 31.034 C 151.589 31.034,151.411 30.838,151.411 30.598 C 151.411 30.358,151.192 30.077,150.924 29.974 C 150.604 29.852,150.505 29.920,150.634 30.176 C 150.742 30.390,150.629 30.320,150.384 30.021 C 150.139 29.722,149.846 29.569,149.734 29.681 C 149.622 29.793,149.530 29.704,149.530 29.483 C 149.530 29.235,149.289 29.143,148.903 29.244 C 148.558 29.335,148.276 29.274,148.276 29.111 C 148.276 28.947,148.100 28.836,147.884 28.864 C 146.996 28.979,146.370 28.821,146.552 28.527 C 146.669 28.337,146.235 28.213,145.455 28.213 C 144.674 28.213,144.240 28.337,144.357 28.527 C 144.464 28.699,144.437 28.844,144.297 28.848 C 142.495 28.902,140.534 29.333,140.236 29.740 C 139.988 30.080,139.483 30.212,138.666 30.154 C 137.871 30.097,137.603 30.164,137.879 30.351 C 138.363 30.679,137.280 31.134,136.207 31.053 C 135.675 31.014,135.651 31.060,136.050 31.359 C 136.426 31.641,136.354 31.676,135.691 31.532 C 135.109 31.406,134.806 31.498,134.674 31.840 C 134.571 32.109,134.345 32.240,134.171 32.133 C 133.998 32.026,133.856 32.087,133.856 32.270 C 133.856 32.452,133.706 32.602,133.524 32.602 C 133.341 32.602,133.278 32.462,133.383 32.292 C 133.616 31.915,132.699 32.221,131.827 32.811 C 131.487 33.041,130.879 33.229,130.476 33.229 C 130.073 33.229,129.822 33.355,129.917 33.509 C 130.012 33.664,129.872 33.874,129.606 33.976 C 129.286 34.099,129.189 34.030,129.321 33.774 C 129.431 33.560,129.215 33.738,128.840 34.169 C 128.465 34.600,128.250 34.777,128.361 34.561 C 128.674 33.956,128.327 34.094,127.421 34.934 C 126.967 35.354,126.396 35.621,126.151 35.527 C 125.880 35.423,125.705 35.553,125.705 35.860 C 125.705 36.137,125.561 36.328,125.384 36.285 C 125.207 36.242,124.819 36.630,124.522 37.146 C 124.224 37.663,123.747 38.304,123.460 38.570 C 123.173 38.837,122.891 39.472,122.833 39.982 C 122.772 40.516,122.561 40.876,122.335 40.831 C 121.848 40.733,121.828 41.138,122.297 41.608 C 122.708 42.018,121.578 43.714,121.152 43.328 C 121.015 43.204,121.004 43.381,121.126 43.721 C 121.249 44.060,121.250 44.239,121.129 44.118 C 121.008 43.996,120.718 44.142,120.485 44.441 C 120.093 44.944,120.077 44.938,120.278 44.368 C 120.472 43.818,120.442 43.801,119.999 44.211 C 119.725 44.464,119.561 44.770,119.634 44.890 C 119.772 45.118,118.033 46.522,117.529 46.591 C 117.371 46.612,117.100 46.648,116.928 46.669 C 116.755 46.691,116.612 46.955,116.610 47.257 C 116.606 47.692,116.548 47.716,116.330 47.372 C 116.114 47.031,116.012 47.077,115.849 47.591 C 115.735 47.950,115.370 48.330,115.037 48.436 C 114.705 48.541,114.465 48.745,114.505 48.889 C 114.630 49.342,112.717 50.795,112.235 50.612 C 111.982 50.516,111.870 50.533,111.988 50.650 C 112.251 50.913,110.279 52.967,109.953 52.770 C 109.824 52.692,109.718 52.767,109.718 52.938 C 109.718 53.109,109.434 53.339,109.086 53.450 C 108.733 53.562,108.549 53.802,108.668 53.994 C 108.805 54.217,108.691 54.266,108.342 54.132 C 108.039 54.015,107.884 54.054,107.986 54.220 C 108.086 54.382,107.882 54.667,107.532 54.854 C 107.183 55.041,106.897 55.088,106.897 54.957 C 106.897 54.826,106.677 55.033,106.409 55.416 C 106.140 55.799,105.709 56.113,105.450 56.113 C 105.191 56.113,105.035 56.219,105.104 56.348 C 105.280 56.677,104.174 57.675,103.918 57.419 C 103.804 57.304,103.757 57.369,103.814 57.563 C 103.871 57.757,103.561 58.322,103.124 58.817 C 102.687 59.312,102.332 59.788,102.334 59.875 C 102.347 60.258,101.333 61.417,101.147 61.231 C 101.034 61.117,100.940 61.267,100.940 61.565 C 100.940 61.894,100.799 62.018,100.579 61.882 C 100.358 61.746,100.302 61.796,100.433 62.010 C 100.671 62.393,99.156 64.890,98.686 64.890 C 98.526 64.890,98.473 65.015,98.567 65.168 C 98.788 65.526,97.977 66.211,97.682 65.916 C 97.559 65.793,97.542 65.910,97.644 66.174 C 97.748 66.447,97.518 66.990,97.110 67.431 C 96.714 67.857,96.438 68.447,96.494 68.742 C 96.590 69.241,96.208 69.442,95.455 69.290 C 95.282 69.255,95.242 69.328,95.365 69.451 C 95.488 69.574,95.438 69.958,95.253 70.303 C 94.982 70.809,94.863 70.847,94.642 70.497 C 94.439 70.176,94.355 70.165,94.323 70.455 C 94.299 70.670,94.261 70.999,94.240 71.185 C 94.218 71.371,93.954 71.704,93.652 71.925 C 93.350 72.146,93.103 72.418,93.103 72.531 C 93.103 73.040,91.647 74.914,91.249 74.918 C 91.004 74.920,90.896 75.013,91.009 75.126 C 91.121 75.238,90.990 75.493,90.718 75.692 C 90.446 75.891,90.201 76.433,90.174 76.898 C 90.147 77.362,90.016 77.743,89.883 77.743 C 89.749 77.743,89.506 78.096,89.342 78.527 C 89.178 78.958,88.916 79.310,88.761 79.310 C 88.605 79.310,88.302 79.734,88.088 80.251 C 87.874 80.768,87.489 81.191,87.233 81.191 C 86.948 81.191,86.837 81.374,86.947 81.661 C 87.057 81.948,86.827 82.327,86.354 82.637 C 85.928 82.916,85.580 83.387,85.580 83.683 C 85.580 83.979,85.482 84.320,85.362 84.440 C 85.242 84.560,85.112 84.876,85.073 85.143 C 84.939 86.055,84.659 86.520,84.246 86.520 C 84.018 86.520,83.813 86.776,83.790 87.089 C 83.730 87.883,82.438 90.001,82.130 89.811 C 81.991 89.725,81.950 89.937,82.041 90.282 C 82.136 90.647,82.051 90.909,81.836 90.909 C 81.634 90.909,81.547 91.038,81.645 91.196 C 81.742 91.353,81.691 91.530,81.530 91.588 C 81.370 91.645,81.192 91.894,81.136 92.141 C 80.983 92.814,80.174 93.720,79.885 93.541 C 79.745 93.455,79.709 93.589,79.805 93.838 C 79.903 94.092,79.695 94.492,79.334 94.745 C 78.978 94.993,78.599 95.641,78.491 96.183 C 78.382 96.725,78.183 97.100,78.047 97.016 C 77.912 96.933,77.881 97.169,77.978 97.541 C 78.090 97.967,78.034 98.142,77.828 98.015 C 77.648 97.904,77.427 98.093,77.338 98.437 C 77.230 98.850,77.297 98.992,77.537 98.857 C 77.765 98.730,77.754 98.811,77.508 99.076 C 77.292 99.308,77.116 99.752,77.116 100.063 C 77.116 100.373,76.975 100.627,76.803 100.627 C 76.630 100.627,76.489 100.776,76.489 100.959 C 76.489 101.142,76.630 101.204,76.803 101.097 C 76.975 100.991,77.116 101.053,77.116 101.235 C 77.116 101.418,76.956 101.567,76.760 101.567 C 76.522 101.567,76.463 102.009,76.583 102.900 C 76.765 104.255,76.233 105.553,75.685 105.089 C 75.535 104.963,75.619 105.133,75.872 105.468 C 76.125 105.803,76.171 105.980,75.975 105.862 C 75.746 105.725,75.543 106.042,75.412 106.743 C 75.299 107.344,75.100 107.837,74.970 107.837 C 74.840 107.837,74.556 108.331,74.337 108.934 C 74.119 109.538,73.809 110.031,73.647 110.031 C 73.486 110.031,73.371 110.137,73.391 110.266 C 73.519 111.073,73.306 111.561,72.896 111.403 C 72.566 111.277,72.474 111.409,72.564 111.879 C 72.639 112.269,72.454 112.695,72.103 112.941 C 71.780 113.167,71.471 113.554,71.416 113.800 C 71.269 114.461,70.623 115.070,70.173 114.974 C 69.956 114.928,69.772 115.142,69.764 115.449 C 69.756 115.757,69.561 116.125,69.331 116.268 C 69.100 116.411,68.889 116.653,68.860 116.806 C 68.832 116.959,68.703 117.049,68.574 117.006 C 68.444 116.963,68.339 117.215,68.339 117.566 C 68.339 117.917,68.115 118.545,67.841 118.963 C 67.568 119.380,67.435 119.869,67.546 120.049 C 67.658 120.229,67.599 120.376,67.417 120.376 C 67.234 120.376,67.085 120.573,67.085 120.813 C 67.085 121.053,66.891 121.324,66.655 121.415 C 66.410 121.508,66.262 121.922,66.312 122.374 C 66.361 122.816,66.177 123.350,65.898 123.575 C 65.480 123.914,65.441 123.908,65.662 123.541 C 65.832 123.259,65.810 123.173,65.601 123.303 C 65.421 123.414,65.307 124.000,65.347 124.605 C 65.388 125.210,65.287 125.705,65.122 125.705 C 64.958 125.705,64.904 125.917,65.004 126.176 C 65.117 126.472,65.000 126.646,64.685 126.646 C 64.278 126.646,64.258 126.732,64.577 127.116 C 64.791 127.375,64.832 127.586,64.667 127.586 C 64.373 127.586,64.302 127.831,64.194 129.232 C 64.164 129.620,63.920 130.109,63.653 130.319 C 63.367 130.543,63.317 130.705,63.530 130.711 C 63.731 130.717,63.847 130.968,63.789 131.270 C 63.732 131.571,63.674 131.932,63.660 132.072 C 63.647 132.211,63.460 132.219,63.245 132.090 C 63.019 131.954,63.052 132.101,63.323 132.436 C 63.648 132.838,63.683 133.055,63.435 133.138 C 63.237 133.205,63.148 133.534,63.236 133.871 C 63.328 134.221,63.239 134.483,63.027 134.483 C 62.825 134.483,62.760 134.320,62.883 134.121 C 63.025 133.891,62.968 133.844,62.727 133.993 C 62.438 134.172,62.460 134.398,62.819 134.945 C 63.238 135.584,63.237 135.727,62.810 136.248 C 62.384 136.769,62.350 136.773,62.504 136.285 C 62.599 135.984,62.543 135.737,62.380 135.737 C 62.217 135.737,62.122 136.584,62.168 137.620 C 62.214 138.656,62.105 139.664,61.926 139.860 C 61.693 140.115,61.711 140.154,61.991 139.996 C 62.206 139.874,62.382 139.924,62.382 140.107 C 62.382 140.289,62.277 140.441,62.147 140.444 C 61.405 140.459,61.075 141.008,61.421 141.653 C 61.678 142.134,61.681 142.320,61.431 142.320 C 61.240 142.320,61.115 142.637,61.153 143.025 C 61.191 143.413,61.142 143.942,61.044 144.201 C 60.716 145.068,60.586 146.395,60.829 146.395 C 61.038 146.395,61.023 148.826,60.792 152.665 L 60.726 153.762 60.483 152.508 C 60.254 151.331,60.247 151.350,60.359 152.821 C 60.575 155.651,60.595 159.433,60.400 160.684 C 60.295 161.360,60.298 161.702,60.406 161.445 C 60.519 161.178,60.781 161.845,61.017 162.998 C 61.328 164.526,61.340 165.073,61.064 165.244 C 60.789 165.414,60.795 165.586,61.089 165.940 C 61.339 166.241,61.408 166.841,61.280 167.609 C 61.148 168.411,61.181 168.667,61.381 168.381 C 61.596 168.074,61.695 168.295,61.730 169.164 C 61.841 171.870,61.981 172.918,62.319 173.549 C 62.514 173.914,62.627 174.266,62.570 174.332 C 62.512 174.398,62.380 175.016,62.275 175.705 C 62.141 176.584,62.169 176.772,62.369 176.332 C 62.622 175.777,62.650 175.802,62.609 176.545 C 62.584 177.007,62.452 177.316,62.316 177.232 C 62.180 177.148,62.069 177.220,62.069 177.392 C 62.069 177.565,62.210 177.793,62.382 177.900 C 62.555 178.006,62.694 178.261,62.691 178.467 C 62.688 178.691,62.565 178.652,62.382 178.370 C 62.134 177.986,62.078 178.023,62.074 178.571 C 62.071 178.941,62.249 179.312,62.469 179.397 C 62.905 179.564,63.025 183.256,62.616 183.899 C 62.491 184.095,62.601 184.431,62.860 184.646 C 63.243 184.964,63.257 185.127,62.935 185.525 C 62.610 185.927,62.616 185.967,62.972 185.753 C 63.272 185.572,63.357 185.626,63.249 185.928 C 63.164 186.168,63.230 186.628,63.397 186.950 C 63.609 187.362,63.596 187.473,63.354 187.323 C 62.841 187.006,62.919 188.983,63.440 189.504 C 63.925 189.989,63.971 194.505,63.498 195.268 C 63.319 195.558,63.342 195.637,63.565 195.498 C 63.950 195.261,64.404 196.383,64.114 196.854 C 64.009 197.023,64.157 197.518,64.443 197.954 C 64.758 198.435,64.825 198.746,64.613 198.746 C 64.421 198.746,64.265 198.993,64.268 199.295 C 64.272 199.763,64.317 199.775,64.577 199.373 C 64.820 198.996,64.892 199.058,64.939 199.687 C 64.971 200.118,65.029 200.682,65.067 200.940 C 65.106 201.199,65.152 201.736,65.170 202.134 C 65.189 202.533,65.345 202.771,65.517 202.665 C 65.690 202.558,65.831 202.699,65.831 202.978 C 65.831 203.282,65.685 203.395,65.469 203.262 C 65.243 203.122,65.192 203.176,65.334 203.405 C 65.458 203.607,65.692 203.691,65.852 203.592 C 66.119 203.427,66.265 203.944,66.229 204.934 C 66.221 205.148,66.329 205.252,66.468 205.166 C 66.606 205.080,66.814 205.436,66.928 205.956 C 67.061 206.562,67.267 206.823,67.502 206.682 C 67.734 206.543,67.721 206.645,67.466 206.960 C 67.138 207.365,67.138 207.538,67.466 207.894 C 68.075 208.556,68.745 209.812,68.362 209.575 C 67.850 209.259,67.957 209.544,68.652 210.345 C 68.997 210.742,69.279 211.407,69.279 211.822 C 69.279 212.237,69.404 212.499,69.556 212.405 C 69.709 212.311,70.238 213.039,70.732 214.023 C 71.226 215.007,71.806 216.003,72.022 216.236 C 72.237 216.469,72.416 217.037,72.419 217.499 C 72.422 218.171,72.488 218.245,72.746 217.868 C 73.013 217.480,73.055 217.507,72.987 218.025 C 72.942 218.370,73.289 219.061,73.757 219.560 C 74.225 220.059,74.608 220.712,74.608 221.011 C 74.608 221.309,74.820 221.729,75.078 221.944 C 75.337 222.158,75.549 222.528,75.549 222.766 C 75.549 223.003,75.760 223.197,76.019 223.197 C 76.277 223.197,76.489 223.358,76.489 223.553 C 76.489 223.749,76.849 224.243,77.289 224.651 C 77.729 225.058,77.989 225.392,77.867 225.392 C 77.745 225.392,77.880 225.650,78.165 225.966 C 78.451 226.282,78.614 226.634,78.527 226.750 C 78.441 226.865,78.463 226.890,78.577 226.805 C 78.782 226.651,79.463 227.452,79.643 228.056 C 79.694 228.229,79.922 228.556,80.150 228.784 C 80.378 229.012,80.564 229.400,80.564 229.646 C 80.564 229.893,80.714 230.094,80.896 230.094 C 81.079 230.094,81.172 230.200,81.103 230.329 C 80.967 230.583,82.003 231.686,82.196 231.493 C 82.260 231.429,82.494 231.667,82.715 232.022 C 82.937 232.377,82.980 232.582,82.811 232.478 C 82.631 232.366,82.573 232.553,82.671 232.927 C 82.763 233.279,82.916 233.490,83.010 233.395 C 83.273 233.133,84.316 234.872,84.103 235.217 C 84.000 235.384,84.066 235.427,84.249 235.314 C 84.653 235.064,86.286 236.922,86.029 237.338 C 85.929 237.500,85.985 237.594,86.155 237.547 C 86.455 237.463,87.735 239.018,88.414 240.293 C 88.601 240.643,89.203 241.129,89.753 241.372 C 90.826 241.847,91.170 242.086,92.364 243.182 C 92.786 243.570,93.267 243.887,93.431 243.887 C 93.596 243.887,93.730 244.035,93.730 244.217 C 93.730 244.398,94.224 244.752,94.828 245.005 C 95.431 245.257,95.925 245.578,95.925 245.719 C 95.925 245.860,96.277 246.164,96.708 246.395 C 97.139 246.626,97.492 246.985,97.492 247.193 C 97.492 247.402,97.702 247.746,97.959 247.960 C 98.216 248.173,98.348 248.472,98.254 248.625 C 98.159 248.778,98.231 248.903,98.412 248.903 C 98.594 248.903,99.176 249.502,99.707 250.235 C 100.238 250.968,100.768 251.559,100.885 251.548 C 101.002 251.538,102.073 252.513,103.266 253.716 C 104.459 254.918,105.235 255.781,104.990 255.634 C 104.611 255.405,104.609 255.443,104.976 255.896 C 105.212 256.188,105.664 256.426,105.980 256.426 C 106.578 256.426,108.150 257.800,108.150 258.321 C 108.150 258.486,108.299 258.621,108.481 258.621 C 108.663 258.621,109.262 259.043,109.813 259.560 C 110.364 260.076,110.921 260.499,111.050 260.500 C 111.179 260.501,111.285 260.701,111.285 260.944 C 111.285 261.187,111.914 261.690,112.682 262.062 C 113.450 262.434,114.508 263.228,115.033 263.825 C 115.558 264.423,115.987 264.819,115.987 264.706 C 115.987 264.593,116.199 264.676,116.458 264.890 C 116.716 265.105,116.928 265.167,116.928 265.029 C 116.928 264.891,117.316 265.202,117.790 265.722 C 118.264 266.241,118.899 266.756,119.201 266.865 C 119.502 266.975,119.749 267.197,119.749 267.359 C 119.749 267.521,120.030 267.580,120.372 267.490 C 120.768 267.387,121.066 267.512,121.190 267.833 C 121.296 268.111,121.556 268.339,121.766 268.339 C 121.976 268.339,122.479 268.691,122.884 269.122 C 123.289 269.553,123.816 269.906,124.054 269.906 C 124.313 269.906,124.397 270.064,124.263 270.298 C 124.139 270.513,124.148 270.589,124.284 270.467 C 124.607 270.175,126.403 271.106,126.188 271.454 C 126.009 271.744,126.663 272.070,127.893 272.304 C 128.320 272.386,128.774 272.620,128.900 272.825 C 129.027 273.030,129.242 273.204,129.377 273.213 C 130.025 273.253,131.034 273.743,131.034 274.016 C 131.034 274.184,131.281 274.281,131.583 274.230 C 131.890 274.179,132.097 274.311,132.053 274.530 C 132.010 274.745,132.116 274.939,132.288 274.961 C 133.518 275.114,134.494 275.590,134.282 275.933 C 134.167 276.120,134.215 276.185,134.388 276.077 C 134.759 275.848,136.677 276.513,136.677 276.871 C 136.677 277.006,136.857 277.116,137.078 277.116 C 137.298 277.116,137.827 277.360,138.253 277.659 C 138.679 277.957,139.169 278.218,139.341 278.238 C 139.514 278.258,139.832 278.296,140.047 278.322 C 140.263 278.348,140.439 278.582,140.439 278.840 C 140.439 279.099,140.588 279.310,140.771 279.310 C 140.953 279.310,140.997 279.134,140.867 278.918 C 140.700 278.639,140.780 278.647,141.149 278.945 C 141.433 279.176,141.814 279.273,141.995 279.161 C 142.176 279.049,142.408 279.177,142.512 279.445 C 142.615 279.714,142.831 279.852,142.993 279.752 C 143.155 279.652,143.458 279.709,143.666 279.878 C 144.108 280.239,149.530 280.322,149.530 279.968 C 149.530 279.836,149.741 279.728,150.000 279.728 C 150.259 279.728,150.470 279.846,150.470 279.990 C 150.470 280.133,151.748 280.251,153.310 280.251 C 154.957 280.251,156.075 280.130,155.972 279.963 C 155.782 279.655,159.148 279.206,161.362 279.243 C 164.589 279.297,164.564 279.293,164.375 279.784 C 164.246 280.122,164.337 280.203,164.696 280.065 C 165.001 279.948,165.274 280.069,165.391 280.373 C 165.496 280.649,165.695 280.805,165.833 280.720 C 166.209 280.487,168.369 282.770,168.133 283.151 C 168.017 283.338,168.077 283.391,168.269 283.272 C 168.456 283.156,168.821 283.364,169.079 283.733 C 169.352 284.123,169.887 284.404,170.355 284.404 C 170.845 284.404,171.160 284.580,171.160 284.854 C 171.160 285.101,171.307 285.212,171.487 285.101 C 171.667 284.990,171.984 285.037,172.192 285.206 C 172.400 285.375,173.101 285.469,173.749 285.416 C 174.397 285.362,174.848 285.446,174.752 285.602 C 174.649 285.768,174.873 285.775,175.295 285.619 C 175.819 285.425,176.117 285.490,176.398 285.859 C 176.649 286.188,176.786 286.227,176.793 285.972 C 176.803 285.556,177.743 285.409,177.743 285.823 C 177.743 285.957,178.342 286.035,179.075 285.997 C 180.274 285.934,180.313 285.953,179.467 286.187 C 178.568 286.435,178.562 286.448,179.326 286.483 C 179.766 286.504,180.312 286.344,180.541 286.129 C 180.873 285.815,180.985 285.815,181.100 286.129 C 181.179 286.344,181.452 286.520,181.706 286.520 C 181.993 286.520,182.079 286.371,181.933 286.129 C 181.747 285.819,181.796 285.816,182.170 286.118 C 182.429 286.328,183.043 286.427,183.534 286.338 C 184.067 286.242,184.524 286.333,184.667 286.565 C 184.799 286.778,185.305 286.962,185.792 286.972 C 186.279 286.982,186.853 287.105,187.069 287.244 C 187.312 287.401,187.463 287.342,187.466 287.087 C 187.469 286.778,187.529 286.770,187.710 287.055 C 187.842 287.262,188.228 287.443,188.568 287.456 C 188.907 287.469,189.819 287.533,190.593 287.598 C 191.367 287.662,192.214 287.614,192.474 287.490 C 193.139 287.174,196.671 287.853,196.343 288.234 C 196.199 288.401,196.306 288.367,196.581 288.159 C 196.855 287.950,197.181 287.881,197.304 288.004 C 197.578 288.278,198.977 288.385,204.116 288.524 C 206.293 288.583,208.255 288.742,208.475 288.878 C 208.696 289.015,208.796 288.999,208.699 288.842 C 208.596 288.674,213.625 288.554,220.955 288.549 C 233.218 288.540,236.731 288.428,236.501 288.056 C 236.394 287.883,240.875 287.393,242.555 287.394 C 242.943 287.394,243.260 287.252,243.260 287.078 C 243.260 286.903,243.542 286.834,243.887 286.925 C 244.231 287.015,244.580 286.981,244.661 286.850 C 244.742 286.719,245.757 286.586,246.916 286.554 C 248.076 286.522,249.178 286.369,249.365 286.213 C 249.702 285.934,250.974 285.590,252.194 285.447 C 252.782 285.379,253.711 285.058,254.359 284.699 C 254.515 284.613,254.542 284.705,254.419 284.905 C 254.142 285.352,254.617 285.383,255.054 284.946 C 255.413 284.587,256.462 284.324,257.759 284.268 C 258.233 284.247,258.621 284.103,258.621 283.946 C 258.621 283.790,258.762 283.749,258.934 283.856 C 259.107 283.962,259.248 283.922,259.248 283.765 C 259.248 283.503,260.278 283.336,261.967 283.322 C 262.429 283.318,262.594 283.171,262.478 282.868 C 262.383 282.621,262.429 282.442,262.579 282.469 C 262.730 282.497,262.923 282.491,263.009 282.457 C 263.096 282.422,263.589 282.338,264.107 282.269 C 264.624 282.200,265.223 282.118,265.439 282.086 C 265.654 282.053,265.831 281.925,265.831 281.800 C 265.831 281.566,267.370 281.048,267.790 281.140 C 267.919 281.168,267.990 281.015,267.947 280.799 C 267.904 280.584,268.061 280.448,268.297 280.498 C 268.532 280.548,269.061 280.368,269.472 280.099 C 269.883 279.830,270.219 279.705,270.219 279.822 C 270.219 279.939,270.502 279.779,270.846 279.467 C 271.191 279.155,271.473 279.023,271.473 279.175 C 271.473 279.326,271.693 279.136,271.961 278.753 C 272.245 278.349,272.779 278.056,273.234 278.056 C 273.677 278.056,273.934 277.920,273.824 277.743 C 273.654 277.467,273.851 277.379,274.480 277.450 C 274.582 277.462,274.829 277.256,275.029 276.994 C 275.228 276.731,275.797 276.445,276.293 276.359 C 276.789 276.273,277.398 275.912,277.647 275.557 C 277.896 275.202,278.228 274.991,278.385 275.088 C 278.796 275.342,279.991 274.635,279.766 274.271 C 279.662 274.103,279.694 273.986,279.836 274.011 C 280.526 274.130,280.878 273.910,281.255 273.123 C 281.481 272.651,281.939 272.212,282.273 272.148 C 282.607 272.084,283.146 271.693,283.471 271.279 C 283.797 270.865,284.194 270.608,284.353 270.707 C 284.513 270.805,284.725 270.675,284.824 270.416 C 284.940 270.114,285.415 269.949,286.154 269.956 C 286.787 269.961,287.727 269.741,288.245 269.467 C 288.762 269.194,289.628 268.969,290.170 268.967 C 290.738 268.966,291.229 268.774,291.329 268.514 C 291.424 268.265,291.757 268.061,292.068 268.060 C 293.151 268.057,294.516 267.617,294.768 267.189 C 294.908 266.952,295.155 266.840,295.317 266.940 C 295.479 267.040,295.611 266.964,295.611 266.771 C 295.611 266.578,295.743 266.502,295.903 266.601 C 296.064 266.700,296.285 266.636,296.395 266.458 C 296.505 266.280,296.712 266.206,296.854 266.294 C 296.996 266.382,297.197 266.234,297.300 265.966 C 297.403 265.697,297.646 265.575,297.838 265.694 C 298.031 265.813,298.293 265.743,298.421 265.537 C 298.631 265.196,299.254 264.978,300.199 264.914 C 300.394 264.901,300.628 264.608,300.718 264.263 C 300.829 263.840,301.145 263.636,301.695 263.636 C 302.142 263.636,302.508 263.480,302.508 263.289 C 302.508 263.098,302.727 263.026,302.994 263.129 C 303.273 263.236,303.399 263.184,303.289 263.006 C 303.184 262.835,303.397 262.696,303.762 262.696 C 304.127 262.696,304.344 262.564,304.244 262.402 C 303.982 261.978,304.993 261.495,305.736 261.689 C 306.159 261.800,306.294 261.736,306.146 261.495 C 306.006 261.269,306.089 261.199,306.370 261.307 C 306.615 261.401,306.903 261.249,307.011 260.970 C 307.118 260.690,307.349 260.550,307.524 260.658 C 307.698 260.766,307.926 260.634,308.029 260.365 C 308.133 260.095,308.393 259.875,308.608 259.875 C 308.823 259.875,309.382 259.520,309.850 259.086 C 310.319 258.652,310.836 258.380,311.001 258.482 C 311.166 258.584,311.262 258.541,311.215 258.387 C 311.167 258.234,311.828 257.482,312.682 256.718 C 314.894 254.740,316.301 253.221,316.301 252.812 C 316.301 252.548,317.015 251.855,317.398 251.749 C 317.571 251.701,317.676 251.534,317.633 251.379 C 317.590 251.224,317.778 251.097,318.051 251.097 C 318.324 251.097,318.489 250.921,318.416 250.705 C 318.344 250.490,318.667 249.961,319.133 249.530 C 321.090 247.722,321.955 247.022,322.233 247.022 C 322.394 247.022,322.575 246.705,322.635 246.317 C 322.694 245.929,322.910 245.645,323.115 245.686 C 323.321 245.727,323.413 245.565,323.322 245.327 C 323.230 245.088,323.446 244.689,323.801 244.440 C 324.157 244.191,324.370 243.911,324.276 243.816 C 324.182 243.722,324.484 243.347,324.947 242.982 C 325.411 242.618,325.631 242.320,325.437 242.320 C 325.237 242.320,325.320 242.034,325.630 241.658 C 326.651 240.419,327.010 240.119,327.275 240.284 C 327.422 240.374,327.638 240.143,327.756 239.770 C 327.983 239.054,329.894 236.991,330.329 236.991 C 330.470 236.991,330.854 236.532,331.181 235.972 C 331.509 235.411,332.210 234.551,332.738 234.059 C 333.267 233.568,333.487 233.261,333.229 233.377 C 332.970 233.494,333.032 233.367,333.367 233.095 C 333.702 232.824,333.843 232.597,333.681 232.592 C 333.518 232.586,333.597 232.408,333.856 232.196 C 334.489 231.677,335.737 229.883,335.737 229.491 C 335.737 229.317,336.026 229.021,336.379 228.832 C 336.807 228.603,336.960 228.297,336.838 227.912 C 336.715 227.525,336.916 227.130,337.450 226.711 C 337.887 226.367,338.245 225.859,338.245 225.582 C 338.245 225.305,338.355 225.078,338.490 225.078 C 338.624 225.078,338.764 224.690,338.801 224.216 C 338.837 223.742,339.166 223.107,339.531 222.806 C 339.896 222.504,340.051 222.257,339.874 222.257 C 339.510 222.257,339.559 221.856,340.077 220.591 C 340.276 220.106,340.453 219.471,340.470 219.180 C 340.489 218.854,340.597 218.952,340.752 219.436 C 341.007 220.231,341.203 217.827,341.076 215.467 C 341.040 214.799,341.209 214.367,341.593 214.144 C 341.906 213.961,342.003 213.808,341.808 213.803 C 341.398 213.792,341.016 212.226,341.423 212.226 C 341.571 212.226,341.693 212.390,341.693 212.591 C 341.693 212.793,341.775 212.875,341.875 212.775 C 341.975 212.675,341.895 212.290,341.696 211.919 C 341.427 211.415,341.426 211.137,341.693 210.815 C 341.950 210.505,341.956 210.210,341.715 209.759 C 341.293 208.970,341.281 208.366,341.693 208.621 C 342.121 208.885,342.090 208.359,341.651 207.921 C 341.268 207.538,341.525 206.442,341.938 206.697 C 342.075 206.782,342.197 206.212,342.210 205.431 C 342.222 204.649,342.371 203.918,342.540 203.807 C 342.881 203.582,342.951 199.934,342.618 199.687 C 341.693 198.998,340.804 194.525,341.536 194.244 C 341.795 194.145,342.004 193.883,342.001 193.662 C 341.998 193.375,341.914 193.391,341.707 193.718 C 341.497 194.050,341.425 193.895,341.446 193.158 C 341.462 192.599,341.617 192.053,341.789 191.947 C 341.980 191.829,342.003 191.914,341.850 192.163 C 341.682 192.435,341.718 192.498,341.958 192.350 C 342.402 192.075,342.435 191.017,342.007 190.753 C 341.810 190.631,341.868 190.226,342.164 189.654 C 342.421 189.156,342.676 188.462,342.729 188.113 C 342.782 187.763,342.914 187.389,343.022 187.282 C 343.129 187.174,343.141 186.888,343.048 186.646 C 342.956 186.405,343.059 186.207,343.279 186.207 C 343.498 186.207,343.584 186.112,343.468 185.997 C 343.353 185.881,343.480 185.448,343.751 185.034 C 344.023 184.620,344.221 183.832,344.191 183.285 C 344.098 181.563,344.180 181.141,344.563 181.378 C 344.798 181.524,344.839 181.463,344.679 181.205 C 344.536 180.973,344.614 180.696,344.866 180.539 C 345.227 180.314,345.229 180.160,344.883 179.601 C 344.653 179.230,344.621 179.026,344.811 179.143 C 345.031 179.280,345.142 179.039,345.118 178.471 C 345.070 177.288,345.364 176.112,345.771 175.860 C 345.953 175.748,346.151 175.173,346.210 174.583 C 346.358 173.122,346.731 171.787,346.992 171.787 C 347.110 171.787,347.244 171.328,347.289 170.768 C 347.334 170.208,347.424 169.255,347.490 168.652 C 347.555 168.049,347.620 167.343,347.634 167.085 C 347.656 166.667,347.692 166.667,347.962 167.085 C 348.336 167.663,348.344 167.285,347.988 165.755 C 347.839 165.109,347.815 164.643,347.937 164.718 C 348.058 164.793,348.193 163.028,348.237 160.797 C 348.286 158.291,348.198 156.740,348.008 156.740 C 347.808 156.740,347.813 156.330,348.021 155.575 C 348.244 154.768,348.242 154.377,348.013 154.301 C 347.832 154.241,347.735 154.024,347.797 153.820 C 348.141 152.690,348.255 148.879,347.940 149.073 C 347.709 149.216,347.618 148.888,347.664 148.076 C 347.702 147.410,347.631 146.625,347.506 146.332 C 347.382 146.038,347.371 145.650,347.483 145.470 C 347.595 145.289,347.580 144.969,347.450 144.759 C 347.320 144.549,347.233 143.703,347.257 142.878 C 347.282 142.054,347.200 141.379,347.075 141.379 C 346.951 141.379,346.853 140.674,346.857 139.812 C 346.862 138.950,346.776 138.245,346.667 138.245 C 346.557 138.245,346.394 137.962,346.304 137.617 C 346.201 137.223,346.264 137.066,346.473 137.195 C 346.683 137.325,346.712 137.249,346.551 136.989 C 346.411 136.762,346.317 136.035,346.343 135.373 C 346.369 134.711,346.248 134.169,346.073 134.169 C 345.895 134.169,345.839 133.839,345.945 133.415 C 346.050 133.000,345.977 132.365,345.784 132.004 C 345.512 131.497,345.524 131.346,345.835 131.338 C 346.062 131.333,345.985 131.182,345.661 130.993 C 345.209 130.731,345.126 130.431,345.278 129.617 C 345.386 129.044,345.352 128.500,345.203 128.408 C 345.054 128.316,344.995 127.811,345.072 127.287 C 345.170 126.623,345.082 126.331,344.785 126.327 C 344.435 126.324,344.438 126.272,344.800 126.042 C 345.174 125.806,345.161 125.681,344.719 125.238 C 344.431 124.950,344.269 124.594,344.360 124.448 C 344.450 124.301,344.394 124.101,344.236 124.003 C 344.077 123.905,344.023 123.260,344.115 122.570 C 344.216 121.821,344.155 121.317,343.965 121.317 C 343.790 121.317,343.567 120.999,343.469 120.611 C 343.297 119.930,343.307 119.927,343.746 120.514 C 344.369 121.348,344.320 120.571,343.672 119.342 C 343.382 118.790,343.094 117.497,343.032 116.468 C 342.970 115.439,342.775 114.508,342.597 114.398 C 342.420 114.288,342.225 113.719,342.165 113.134 C 342.013 111.678,341.798 110.814,341.401 110.072 C 341.217 109.728,341.066 108.934,341.066 108.309 C 341.066 107.632,340.939 107.251,340.752 107.367 C 340.580 107.473,340.439 107.270,340.439 106.915 C 340.439 106.560,340.307 106.270,340.146 106.270 C 339.985 106.270,339.917 105.917,339.996 105.486 C 340.074 105.055,340.008 104.702,339.849 104.702 C 339.448 104.702,338.859 102.905,339.075 102.342 C 339.172 102.089,339.100 101.881,338.915 101.881 C 338.729 101.881,338.664 101.655,338.770 101.379 C 338.876 101.103,338.767 100.756,338.527 100.608 C 338.287 100.460,338.062 99.957,338.026 99.492 C 337.990 99.026,337.778 98.529,337.554 98.387 C 337.236 98.185,337.250 98.126,337.618 98.114 C 337.988 98.103,337.972 98.032,337.539 97.781 C 337.237 97.605,336.991 97.115,336.991 96.693 C 336.991 96.270,336.839 95.925,336.654 95.925 C 336.469 95.925,336.371 95.678,336.435 95.376 C 336.500 95.074,336.218 94.284,335.807 93.620 C 335.397 92.956,335.006 92.125,334.939 91.775 C 334.871 91.424,334.600 90.898,334.336 90.606 C 334.072 90.315,333.856 89.770,333.856 89.395 C 333.856 89.021,333.692 88.750,333.492 88.793 C 333.291 88.836,333.045 88.588,332.943 88.243 C 332.842 87.897,332.300 86.954,331.740 86.148 C 331.179 85.343,330.721 84.564,330.721 84.418 C 330.721 84.272,330.477 83.804,330.180 83.379 C 329.882 82.954,329.611 82.420,329.577 82.192 C 329.544 81.964,329.226 81.526,328.871 81.218 C 328.515 80.909,328.305 80.577,328.402 80.479 C 328.500 80.382,328.299 80.151,327.955 79.967 C 327.529 79.739,327.383 79.426,327.498 78.988 C 327.590 78.633,327.533 78.384,327.371 78.435 C 327.070 78.528,325.078 76.703,325.078 76.334 C 325.078 76.222,324.873 75.925,324.621 75.674 C 324.370 75.423,324.244 75.009,324.342 74.756 C 324.446 74.483,324.336 74.295,324.072 74.295 C 323.827 74.295,323.309 73.730,322.922 73.041 C 322.534 72.351,322.010 71.787,321.757 71.787 C 321.504 71.787,321.203 71.540,321.089 71.238 C 320.975 70.937,320.696 70.502,320.469 70.273 C 320.242 70.043,320.135 69.729,320.231 69.574 C 320.418 69.271,319.220 67.404,318.574 66.991 C 318.358 66.853,318.182 66.527,318.182 66.267 C 318.182 66.007,318.041 65.881,317.868 65.987 C 317.696 66.094,317.555 65.978,317.555 65.729 C 317.555 65.480,317.202 65.045,316.771 64.762 C 316.340 64.480,315.987 64.032,315.987 63.767 C 315.987 63.503,315.846 63.373,315.674 63.480 C 315.502 63.586,315.361 63.453,315.361 63.185 C 315.361 62.916,315.184 62.731,314.969 62.774 C 314.753 62.817,314.595 62.611,314.618 62.316 C 314.641 62.021,314.571 61.810,314.462 61.846 C 314.353 61.882,313.946 61.595,313.558 61.207 C 313.170 60.819,312.917 60.502,312.995 60.502 C 313.074 60.502,312.785 60.149,312.354 59.718 C 311.923 59.287,311.462 58.934,311.330 58.934 C 311.198 58.934,310.777 58.511,310.394 57.994 C 310.012 57.476,309.497 57.053,309.249 57.053 C 309.002 57.053,308.642 56.759,308.450 56.399 C 308.257 56.040,308.018 55.828,307.917 55.928 C 307.817 56.028,307.473 55.680,307.153 55.154 C 306.833 54.627,306.148 54.019,305.631 53.801 C 305.115 53.584,304.788 53.310,304.906 53.192 C 305.024 53.074,304.877 52.978,304.579 52.978 C 304.250 52.978,304.126 52.836,304.262 52.616 C 304.399 52.394,304.348 52.339,304.128 52.475 C 303.927 52.600,303.329 52.245,302.758 51.661 C 302.201 51.092,301.624 50.666,301.476 50.713 C 301.328 50.760,301.297 50.654,301.406 50.477 C 301.516 50.300,301.244 50.018,300.803 49.850 C 300.361 49.683,300.000 49.392,300.000 49.206 C 300.000 49.019,299.859 48.953,299.687 49.060 C 299.514 49.166,299.373 49.096,299.373 48.903 C 299.373 48.710,299.226 48.643,299.046 48.755 C 298.641 49.005,297.748 48.309,297.984 47.927 C 298.079 47.774,297.932 47.649,297.658 47.649 C 297.383 47.649,297.077 47.435,296.976 47.173 C 296.876 46.911,296.563 46.735,296.281 46.781 C 295.999 46.827,295.802 46.694,295.843 46.485 C 295.889 46.250,295.719 46.180,295.399 46.303 C 295.022 46.448,294.952 46.388,295.141 46.082 C 295.325 45.783,295.264 45.714,294.928 45.843 C 294.662 45.945,294.274 45.774,294.043 45.454 C 293.817 45.140,293.368 44.933,293.046 44.995 C 292.723 45.058,292.542 44.975,292.643 44.811 C 292.744 44.648,292.537 44.514,292.182 44.514 C 291.817 44.514,291.536 44.310,291.536 44.044 C 291.536 43.780,291.256 43.574,290.899 43.574 C 290.549 43.574,290.182 43.363,290.083 43.105 C 289.984 42.848,289.786 42.709,289.644 42.797 C 289.502 42.885,289.296 42.814,289.188 42.638 C 289.080 42.463,288.823 42.322,288.618 42.325 C 288.394 42.327,288.432 42.451,288.715 42.633 C 289.010 42.824,289.043 42.939,288.804 42.942 C 288.595 42.945,288.273 42.666,288.089 42.323 C 287.906 41.980,287.654 41.726,287.530 41.758 C 286.996 41.897,285.893 41.298,285.893 40.868 C 285.893 40.605,285.653 40.429,285.345 40.467 C 284.596 40.560,283.663 40.123,283.876 39.779 C 283.971 39.625,283.865 39.488,283.639 39.474 C 282.673 39.418,282.098 39.204,281.205 38.568 C 280.682 38.196,280.122 37.974,279.959 38.075 C 279.796 38.175,279.543 38.044,279.397 37.783 C 279.251 37.522,278.739 37.276,278.261 37.236 C 277.782 37.196,277.241 36.984,277.058 36.764 C 276.875 36.544,276.492 36.364,276.207 36.364 C 275.922 36.364,275.409 36.168,275.068 35.929 C 274.727 35.690,273.935 35.426,273.307 35.341 C 272.680 35.257,271.975 35.066,271.741 34.918 C 271.508 34.770,271.246 34.635,271.160 34.618 C 270.795 34.546,269.080 33.831,268.578 33.542 C 268.279 33.370,267.778 33.229,267.465 33.229 C 267.152 33.229,266.707 33.053,266.474 32.837 C 266.131 32.518,266.100 32.533,266.309 32.915 C 266.517 33.297,266.452 33.290,265.963 32.879 C 265.632 32.600,265.149 32.361,264.890 32.348 C 264.632 32.336,264.138 32.257,263.793 32.174 C 263.448 32.091,262.981 32.012,262.756 31.999 C 262.530 31.986,262.426 31.844,262.525 31.685 C 262.628 31.519,262.234 31.453,261.606 31.530 C 260.835 31.626,260.341 31.501,259.952 31.112 C 259.647 30.807,259.135 30.608,258.815 30.669 C 258.431 30.743,258.311 30.655,258.461 30.412 C 258.626 30.145,258.294 30.067,257.259 30.130 C 256.305 30.189,255.642 30.055,255.266 29.727 C 254.956 29.456,254.314 29.257,253.840 29.283 C 253.366 29.309,252.978 29.212,252.978 29.067 C 252.978 28.922,252.828 28.896,252.645 29.009 C 252.462 29.122,252.074 29.008,251.783 28.756 C 251.492 28.503,250.937 28.325,250.549 28.359 C 250.161 28.394,249.843 28.288,249.843 28.124 C 249.843 27.961,249.483 27.896,249.042 27.980 C 248.577 28.069,248.052 27.944,247.790 27.683 C 247.543 27.435,247.192 27.324,247.011 27.436 C 246.829 27.549,246.504 27.494,246.288 27.314 C 246.073 27.135,245.620 27.000,245.283 27.015 C 244.368 27.054,242.866 26.704,242.659 26.404 C 242.558 26.259,241.912 26.111,241.223 26.076 C 239.457 25.984,238.213 25.696,238.386 25.417 C 238.466 25.287,237.938 25.139,237.213 25.090 C 236.487 25.040,235.505 24.964,235.031 24.921 C 234.557 24.878,233.949 24.826,233.681 24.804 C 233.412 24.783,233.274 24.632,233.374 24.470 C 233.481 24.297,232.971 24.223,232.134 24.291 C 231.231 24.365,230.783 24.292,230.907 24.091 C 231.031 23.890,230.707 23.838,230.020 23.947 C 229.220 24.074,228.771 23.964,228.299 23.523 C 227.784 23.044,227.095 22.910,224.766 22.840 C 222.703 22.778,221.827 22.633,221.713 22.333 C 221.605 22.053,220.966 21.911,219.788 21.905 C 215.990 21.887,214.566 21.774,214.318 21.473 C 214.148 21.267,214.009 21.279,213.915 21.507 C 213.754 21.895,211.496 21.754,211.353 21.347 C 211.264 21.096,205.525 21.198,204.791 21.464 C 204.581 21.540,204.325 21.468,204.224 21.303 C 203.983 20.913,203.537 20.920,203.292 21.317 M189.065 26.072 C 189.045 26.359,188.947 26.853,188.848 27.169 C 188.677 27.713,188.686 27.714,189.026 27.185 C 189.223 26.877,189.320 26.384,189.242 26.087 C 189.115 25.602,189.097 25.600,189.065 26.072 M173.135 74.802 C 174.793 75.639,175.543 76.531,176.046 78.260 C 176.560 80.029,176.510 80.623,175.483 84.953 C 174.774 87.941,174.837 91.914,175.661 96.238 C 177.118 103.884,176.510 106.897,173.511 106.897 C 171.049 106.897,170.436 105.697,169.911 99.843 C 169.072 90.505,169.117 90.722,167.231 87.066 C 163.316 79.480,167.048 71.726,173.135 74.802 M212.467 77.264 C 217.832 79.762,215.386 89.269,209.561 88.560 C 203.751 87.853,201.594 82.949,205.226 78.705 C 207.234 76.360,209.539 75.901,212.467 77.264 M233.574 80.116 C 237.306 82.022,237.287 89.119,233.540 92.866 C 230.717 95.689,225.000 93.515,224.296 89.352 C 223.230 83.039,228.678 77.615,233.574 80.116 M277.394 91.200 C 277.844 91.508,278.599 91.994,279.071 92.279 C 283.391 94.896,280.365 103.344,274.346 105.468 C 270.710 106.751,268.466 108.251,262.862 113.145 C 258.685 116.794,258.065 117.086,256.572 116.108 C 254.866 114.990,255.341 114.177,260.794 108.887 C 263.540 106.223,266.167 103.744,266.631 103.379 C 267.723 102.520,268.186 101.357,268.661 98.276 C 269.011 96.010,270.292 92.790,270.844 92.790 C 270.960 92.790,271.537 92.312,272.126 91.727 C 273.709 90.156,275.591 89.968,277.394 91.200 M219.385 92.099 C 221.087 95.194,219.203 101.092,216.391 101.470 C 213.473 101.861,212.417 99.044,213.801 94.561 C 215.103 90.348,217.773 89.170,219.385 92.099 M203.572 101.671 C 205.032 102.111,205.801 103.064,206.401 105.172 C 208.447 112.374,210.007 114.411,213.870 114.922 C 215.128 115.088,218.173 113.662,218.185 112.901 C 218.187 112.788,218.796 112.037,219.539 111.232 C 220.824 109.839,221.630 108.068,221.630 106.638 C 221.630 106.278,222.180 105.404,222.852 104.698 L 224.074 103.413 225.282 103.906 C 225.946 104.177,226.801 104.784,227.183 105.256 C 227.565 105.727,228.239 106.560,228.681 107.106 C 232.540 111.878,231.325 117.995,226.915 115.994 C 225.094 115.168,223.943 115.181,223.487 116.033 C 218.530 125.294,205.316 122.173,201.582 110.858 C 201.113 109.438,200.380 108.943,198.043 108.471 C 193.831 107.619,194.489 103.092,199.060 101.470 C 199.877 101.180,202.304 101.288,203.572 101.671 " stroke="none" fill="#f2e455" fill-rule="evenodd"></path><path id="path1" d="M201.646 21.247 C 201.258 21.309,200.940 21.467,200.940 21.598 C 200.940 21.728,200.482 21.793,199.922 21.741 L 198.903 21.647 199.997 21.928 C 200.662 22.099,201.230 22.093,201.446 21.915 C 201.641 21.753,203.194 21.536,204.897 21.433 C 206.600 21.330,208.056 21.188,208.131 21.118 C 208.292 20.968,202.687 21.080,201.646 21.247 M211.285 21.283 C 211.285 21.474,211.532 21.642,211.834 21.656 C 212.136 21.671,212.700 21.718,213.088 21.761 C 213.476 21.804,213.793 21.721,213.793 21.578 C 213.793 21.434,213.452 21.317,213.035 21.317 C 212.618 21.317,212.054 21.231,211.781 21.126 C 211.508 21.022,211.285 21.092,211.285 21.283 M193.781 22.409 C 193.371 22.635,193.189 22.900,193.368 23.010 C 193.543 23.119,193.777 23.062,193.887 22.884 C 193.997 22.706,194.209 22.635,194.357 22.727 C 194.506 22.819,194.718 22.749,194.828 22.571 C 194.938 22.392,195.181 22.341,195.368 22.457 C 195.571 22.583,195.618 22.521,195.484 22.305 C 195.207 21.857,194.730 21.886,193.781 22.409 M221.699 22.308 C 221.838 22.724,222.884 22.961,222.884 22.576 C 222.884 22.438,222.661 22.239,222.388 22.134 C 221.684 21.864,221.561 21.894,221.699 22.308 M191.136 23.433 C 190.458 24.182,190.420 24.672,191.091 24.001 C 191.364 23.728,191.707 23.579,191.853 23.670 C 192.000 23.761,192.222 23.670,192.347 23.468 C 192.482 23.249,192.438 23.184,192.238 23.308 C 192.054 23.422,191.852 23.362,191.790 23.175 C 191.725 22.980,191.447 23.090,191.136 23.433 M227.900 23.164 C 227.900 23.485,228.741 23.910,229.545 23.995 C 230.327 24.077,230.228 23.910,229.169 23.362 C 228.100 22.810,227.900 22.778,227.900 23.164 M230.878 24.138 C 230.631 24.537,231.357 24.537,231.975 24.138 C 232.357 23.891,232.317 23.833,231.758 23.829 C 231.381 23.827,230.984 23.966,230.878 24.138 M233.095 24.424 C 233.570 24.866,235.018 25.218,234.616 24.793 C 234.431 24.597,233.948 24.373,233.542 24.295 C 233.119 24.213,232.928 24.268,233.095 24.424 M189.307 25.313 C 189.288 25.443,189.294 25.901,189.321 26.332 C 189.361 26.975,189.307 27.032,189.022 26.646 C 188.733 26.255,188.700 26.282,188.827 26.803 C 188.939 27.262,188.604 27.744,187.572 28.605 L 186.164 29.781 187.283 29.781 C 187.898 29.781,188.401 29.922,188.401 30.094 C 188.401 30.568,189.427 30.470,190.212 29.920 C 191.109 29.292,191.105 28.598,190.204 28.470 C 189.454 28.363,189.250 25.997,189.970 25.757 C 190.144 25.699,190.206 25.523,190.109 25.365 C 189.895 25.020,189.355 24.985,189.307 25.313 M238.384 25.420 C 238.227 25.673,240.358 26.204,240.592 25.971 C 240.660 25.903,240.226 25.694,239.628 25.507 C 239.030 25.320,238.470 25.281,238.384 25.420 M143.339 28.421 C 142.638 28.703,142.925 29.071,143.727 28.918 C 144.156 28.836,144.430 28.643,144.335 28.491 C 144.149 28.190,143.945 28.176,143.339 28.421 M146.565 28.505 C 146.475 28.650,146.683 28.842,147.025 28.932 C 147.368 29.022,147.649 28.982,147.649 28.844 C 147.649 28.476,146.756 28.196,146.565 28.505 M139.943 29.577 C 139.835 29.859,139.598 29.999,139.417 29.887 C 139.216 29.763,139.182 29.836,139.330 30.076 C 139.518 30.379,139.684 30.357,140.065 29.975 C 140.337 29.704,140.464 29.388,140.349 29.273 C 140.234 29.158,140.052 29.295,139.943 29.577 M181.839 29.510 C 180.901 29.665,180.055 29.879,179.958 29.986 C 179.860 30.093,180.168 30.109,180.643 30.024 C 181.117 29.938,181.505 29.989,181.505 30.138 C 181.505 30.574,182.895 30.448,183.964 29.914 C 185.636 29.081,185.072 28.973,181.839 29.510 M255.310 29.760 C 255.805 30.307,256.426 30.385,256.426 29.900 C 256.426 29.814,256.285 29.831,256.113 29.937 C 255.940 30.044,255.799 29.997,255.799 29.833 C 255.799 29.668,255.560 29.442,255.268 29.330 C 254.799 29.150,254.803 29.200,255.310 29.760 M137.002 30.400 C 136.299 30.835,136.796 31.244,137.557 30.857 C 138.083 30.589,138.161 30.443,137.842 30.320 C 137.601 30.228,137.223 30.264,137.002 30.400 M151.411 30.557 C 151.411 30.820,151.589 31.034,151.807 31.034 C 152.025 31.034,152.730 31.317,153.373 31.661 C 154.017 32.006,154.718 32.288,154.932 32.288 C 155.145 32.288,154.758 31.993,154.071 31.632 C 153.383 31.271,152.504 30.774,152.116 30.527 C 151.497 30.135,151.411 30.138,151.411 30.557 M175.549 30.572 C 175.118 30.814,174.835 31.028,174.922 31.047 C 175.864 31.258,176.200 31.249,176.350 31.007 C 176.447 30.850,176.894 30.721,177.343 30.721 C 178.301 30.721,178.216 30.569,177.116 30.314 C 176.684 30.214,175.980 30.330,175.549 30.572 M259.561 30.679 C 259.561 31.316,261.082 31.839,261.529 31.356 C 261.839 31.021,261.799 30.982,261.318 31.153 C 260.952 31.282,260.502 31.161,260.143 30.837 C 259.786 30.514,259.561 30.453,259.561 30.679 M172.166 31.205 C 172.260 31.299,172.742 31.443,173.237 31.525 C 173.913 31.638,174.021 31.596,173.668 31.360 C 173.185 31.035,171.860 30.899,172.166 31.205 M133.797 31.765 C 133.568 31.994,133.170 32.127,132.913 32.060 C 132.643 31.990,132.693 32.094,133.031 32.307 C 133.482 32.590,133.671 32.588,133.850 32.298 C 133.978 32.091,134.204 31.944,134.353 31.972 C 134.502 31.999,134.674 31.870,134.736 31.685 C 134.893 31.213,134.298 31.264,133.797 31.765 M169.201 31.564 C 168.899 31.643,168.652 31.926,168.652 32.193 C 168.652 32.546,168.759 32.590,169.044 32.353 C 169.259 32.175,169.573 32.027,169.741 32.025 C 169.909 32.023,170.098 31.870,170.159 31.685 C 170.275 31.337,170.137 31.319,169.201 31.564 M262.219 31.651 C 262.450 32.025,263.636 32.271,263.636 31.946 C 263.636 31.789,263.531 31.651,263.401 31.637 C 263.272 31.624,262.919 31.566,262.616 31.508 C 262.314 31.450,262.135 31.515,262.219 31.651 M166.458 32.098 C 166.458 32.403,167.341 32.517,167.740 32.264 C 168.062 32.061,167.947 31.983,167.320 31.980 C 166.846 31.977,166.458 32.030,166.458 32.098 M130.859 32.749 C 130.373 33.117,130.349 33.211,130.739 33.219 C 131.008 33.224,131.502 33.022,131.837 32.769 C 132.323 32.401,132.347 32.306,131.956 32.298 C 131.688 32.293,131.194 32.496,130.859 32.749 M156.270 32.602 C 156.376 32.774,156.675 32.915,156.934 32.915 C 157.192 32.915,157.325 33.043,157.228 33.200 C 157.131 33.356,157.350 33.406,157.714 33.311 C 158.308 33.155,158.273 33.095,157.365 32.713 C 156.157 32.205,156.016 32.191,156.270 32.602 M162.382 32.602 C 162.124 32.769,161.571 32.908,161.155 32.911 C 160.738 32.913,160.482 33.000,160.585 33.103 C 160.864 33.382,163.323 32.907,163.323 32.574 C 163.323 32.208,162.977 32.218,162.382 32.602 M129.467 33.542 C 129.467 33.735,129.333 33.810,129.169 33.709 C 129.006 33.608,128.716 33.846,128.525 34.239 C 128.206 34.897,128.215 34.908,128.638 34.384 C 128.890 34.070,129.183 33.834,129.290 33.858 C 129.798 33.975,130.211 33.651,129.843 33.424 C 129.636 33.296,129.467 33.349,129.467 33.542 M127.586 34.421 C 127.586 34.616,127.397 34.704,127.166 34.615 C 126.694 34.434,125.844 35.278,126.247 35.528 C 126.608 35.750,128.100 34.579,127.817 34.295 C 127.690 34.168,127.586 34.225,127.586 34.421 M123.671 37.614 C 123.177 38.130,122.862 38.640,122.970 38.749 C 123.216 38.994,124.138 38.104,124.138 37.621 C 124.138 37.427,124.255 37.340,124.399 37.429 C 124.543 37.517,124.660 37.385,124.660 37.134 C 124.660 36.550,124.717 36.522,123.671 37.614 M281.952 39.035 C 282.284 39.286,282.633 39.415,282.727 39.321 C 282.923 39.125,282.127 38.565,281.661 38.573 C 281.489 38.576,281.620 38.784,281.952 39.035 M122.341 40.108 C 122.097 40.499,122.069 40.793,122.266 40.914 C 122.604 41.123,123.009 40.343,122.834 39.819 C 122.774 39.639,122.552 39.769,122.341 40.108 M283.886 39.763 C 283.806 39.893,283.989 40.156,284.294 40.346 C 284.722 40.614,284.848 40.595,284.848 40.266 C 284.848 39.784,284.111 39.399,283.886 39.763 M285.893 41.045 C 285.893 41.307,286.917 41.795,287.551 41.834 C 287.686 41.843,287.928 42.061,288.087 42.320 C 288.247 42.578,288.661 42.806,289.008 42.825 C 289.969 42.879,289.464 42.380,287.690 41.524 C 285.867 40.645,285.893 40.652,285.893 41.045 M121.574 41.920 C 121.310 42.226,120.903 42.925,120.669 43.473 C 120.435 44.021,120.110 44.387,119.948 44.286 C 119.776 44.180,119.758 44.275,119.905 44.513 C 120.106 44.838,120.236 44.817,120.533 44.410 C 120.740 44.128,121.008 43.996,121.129 44.118 C 121.250 44.239,121.249 44.060,121.126 43.721 C 121.004 43.381,121.015 43.204,121.152 43.328 C 121.526 43.667,122.712 42.023,122.353 41.663 C 122.164 41.474,121.878 41.568,121.574 41.920 M291.536 44.044 C 291.536 44.303,291.765 44.514,292.045 44.514 C 292.461 44.514,292.483 44.429,292.163 44.044 C 291.948 43.785,291.720 43.574,291.654 43.574 C 291.589 43.574,291.536 43.785,291.536 44.044 M117.905 45.724 C 117.201 46.308,117.015 46.604,117.352 46.604 C 117.632 46.604,118.321 46.210,118.883 45.729 C 119.511 45.191,119.724 44.851,119.436 44.849 C 119.177 44.846,118.488 45.240,117.905 45.724 M295.027 46.187 C 295.090 46.227,295.388 46.448,295.690 46.679 C 296.151 47.032,296.238 47.029,296.238 46.657 C 296.238 46.414,295.940 46.192,295.576 46.165 C 295.212 46.138,294.965 46.147,295.027 46.187 M298.131 48.447 C 298.352 48.713,298.722 48.859,298.953 48.770 C 299.184 48.682,299.373 48.769,299.373 48.965 C 299.373 49.161,299.479 49.215,299.608 49.086 C 299.888 48.806,298.815 47.962,298.178 47.962 C 297.808 47.962,297.800 48.048,298.131 48.447 M114.107 48.884 C 114.107 49.067,113.998 49.181,113.865 49.138 C 113.503 49.020,111.903 50.356,112.132 50.585 C 112.241 50.694,112.130 50.787,111.886 50.791 C 111.642 50.794,110.636 51.553,109.652 52.476 C 108.667 53.400,107.644 54.239,107.379 54.341 C 107.114 54.442,106.897 54.679,106.897 54.867 C 106.897 55.066,107.280 54.981,107.820 54.662 C 108.328 54.362,108.678 54.012,108.599 53.884 C 108.520 53.755,108.739 53.560,109.086 53.450 C 109.434 53.339,109.718 53.094,109.718 52.905 C 109.718 52.715,109.807 52.649,109.916 52.759 C 110.026 52.868,110.604 52.468,111.202 51.870 C 111.799 51.273,112.380 50.783,112.492 50.783 C 113.008 50.781,114.775 48.966,114.454 48.767 C 114.263 48.649,114.107 48.702,114.107 48.884 M303.135 51.858 C 303.135 52.134,304.133 52.978,304.459 52.978 C 304.646 52.978,304.473 52.696,304.075 52.351 C 303.349 51.722,303.135 51.609,303.135 51.858 M105.801 55.484 C 105.488 55.830,105.378 56.113,105.556 56.113 C 105.950 56.113,106.732 55.217,106.521 55.006 C 106.438 54.923,106.114 55.138,105.801 55.484 M307.215 55.035 C 307.222 55.449,307.825 56.338,307.839 55.956 C 307.846 55.784,308.127 55.995,308.464 56.426 C 308.801 56.857,309.080 57.060,309.084 56.877 C 309.088 56.694,308.668 56.138,308.150 55.643 C 307.633 55.147,307.212 54.874,307.215 55.035 M103.737 57.607 C 102.343 59.061,101.254 60.623,101.254 61.168 C 101.254 61.575,102.086 60.592,102.153 60.106 C 102.184 59.885,103.478 58.354,104.781 56.998 C 105.082 56.683,105.223 56.429,105.094 56.432 C 104.965 56.435,104.354 56.964,103.737 57.607 M309.888 57.658 C 309.789 57.819,309.851 58.039,310.026 58.147 C 310.201 58.256,310.349 58.230,310.354 58.091 C 310.360 57.951,310.508 58.084,310.683 58.386 C 311.003 58.934,311.608 59.143,311.589 58.699 C 311.571 58.275,310.074 57.358,309.888 57.658 M311.920 59.152 C 311.916 59.357,312.193 59.723,312.537 59.963 C 312.881 60.204,313.069 60.494,312.955 60.608 C 312.841 60.722,312.901 60.815,313.088 60.815 C 313.275 60.815,313.749 61.334,314.141 61.968 C 314.533 62.602,314.907 62.959,314.973 62.762 C 315.107 62.359,314.974 62.166,313.196 60.188 C 312.499 59.412,311.924 58.946,311.920 59.152 M100.652 61.520 C 100.638 61.822,100.510 62.069,100.366 62.069 C 100.223 62.069,99.643 62.810,99.077 63.715 C 98.512 64.620,97.644 65.960,97.150 66.693 C 96.656 67.426,96.371 68.025,96.517 68.025 C 96.839 68.025,98.598 65.456,98.501 65.125 C 98.464 64.996,98.559 64.890,98.713 64.890 C 99.158 64.890,101.015 61.812,100.837 61.370 C 100.738 61.124,100.667 61.182,100.652 61.520 M96.003 68.568 C 95.788 68.643,95.611 68.889,95.611 69.115 C 95.611 69.341,95.400 69.607,95.141 69.706 C 94.882 69.805,94.671 70.117,94.671 70.399 C 94.671 70.764,94.947 70.617,95.622 69.894 C 96.576 68.873,96.737 68.314,96.003 68.568 M320.264 69.520 C 320.150 69.704,320.242 70.043,320.469 70.273 C 320.696 70.502,320.967 70.917,321.073 71.195 C 321.178 71.473,321.566 71.779,321.935 71.875 C 322.523 72.029,322.556 71.987,322.197 71.531 C 321.462 70.599,321.301 70.384,320.884 69.780 C 320.624 69.404,320.395 69.308,320.264 69.520 M92.050 73.482 C 91.190 74.609,91.060 74.924,91.458 74.918 C 91.759 74.913,93.193 72.712,93.013 72.532 C 92.938 72.458,92.505 72.885,92.050 73.482 M323.091 73.354 C 323.396 73.871,323.766 74.295,323.913 74.295 C 324.060 74.295,323.879 73.871,323.511 73.354 C 323.143 72.837,322.772 72.414,322.688 72.414 C 322.604 72.414,322.785 72.837,323.091 73.354 M168.552 74.881 C 164.854 77.320,164.393 81.567,167.231 87.066 C 169.117 90.722,169.072 90.505,169.911 99.843 C 170.436 105.697,171.049 106.897,173.511 106.897 C 176.510 106.897,177.118 103.884,175.661 96.238 C 174.837 91.914,174.774 87.941,175.483 84.953 C 176.510 80.623,176.560 80.029,176.046 78.260 C 175.090 74.973,171.125 73.185,168.552 74.881 M324.342 74.844 C 324.227 75.031,324.345 75.397,324.605 75.658 C 324.865 75.918,325.078 76.218,325.078 76.325 C 325.078 76.433,325.572 77.028,326.176 77.650 C 326.811 78.304,327.273 78.591,327.273 78.330 C 327.273 78.083,326.991 77.678,326.646 77.429 C 326.301 77.181,326.018 76.832,326.017 76.655 C 326.014 76.058,324.562 74.488,324.342 74.844 M89.829 76.747 C 89.730 77.062,89.403 77.591,89.103 77.923 C 87.922 79.232,86.818 81.191,87.262 81.191 C 87.502 81.191,87.874 80.768,88.088 80.251 C 88.302 79.734,88.605 79.310,88.761 79.310 C 88.916 79.310,89.178 78.958,89.342 78.527 C 89.506 78.096,89.749 77.743,89.883 77.743 C 90.016 77.743,90.146 77.390,90.171 76.959 C 90.224 76.035,90.083 75.948,89.829 76.747 M207.347 76.932 C 203.943 78.414,202.312 83.876,204.569 86.232 C 209.881 91.776,217.846 86.550,214.776 79.534 C 213.701 77.078,209.993 75.779,207.347 76.932 M327.439 79.295 C 327.338 79.458,327.527 79.738,327.860 79.916 C 328.377 80.193,328.442 80.150,328.303 79.618 C 328.129 78.954,327.740 78.808,327.439 79.295 M229.885 79.608 C 223.833 81.068,221.955 90.566,227.193 93.220 C 231.473 95.389,233.967 94.033,235.710 88.591 C 237.587 82.731,234.794 78.424,229.885 79.608 M328.817 81.171 C 329.202 81.505,329.547 81.984,329.584 82.237 C 329.621 82.489,329.803 82.886,329.988 83.119 C 330.173 83.352,330.556 84.036,330.837 84.639 C 331.119 85.243,331.717 86.160,332.167 86.677 C 332.779 87.382,332.858 87.421,332.483 86.834 C 332.207 86.403,331.608 85.274,331.151 84.326 C 330.161 82.270,328.941 80.564,328.463 80.564 C 328.273 80.564,328.432 80.837,328.817 81.171 M86.198 81.986 C 85.653 82.642,86.107 82.993,86.715 82.385 C 87.008 82.092,87.083 81.815,86.899 81.702 C 86.730 81.597,86.414 81.725,86.198 81.986 M84.621 84.812 C 84.038 86.051,83.933 86.520,84.238 86.520 C 84.640 86.520,84.901 86.118,85.087 85.213 C 85.133 84.984,85.277 84.554,85.405 84.258 C 86.028 82.823,85.320 83.323,84.621 84.812 M83.265 87.607 C 82.986 88.031,82.759 88.458,82.759 88.555 C 82.759 88.704,82.169 89.616,80.196 92.522 C 80.004 92.806,79.858 93.158,79.873 93.306 C 79.887 93.453,79.601 93.891,79.237 94.279 C 78.872 94.667,78.730 94.984,78.921 94.984 C 79.112 94.984,79.588 94.526,79.979 93.966 C 80.371 93.405,80.768 92.876,80.863 92.790 C 80.957 92.704,81.080 92.422,81.136 92.163 C 81.192 91.904,81.370 91.645,81.530 91.588 C 81.691 91.530,81.742 91.353,81.645 91.196 C 81.547 91.038,81.617 90.909,81.800 90.909 C 81.982 90.909,82.132 90.765,82.132 90.589 C 82.132 90.414,82.459 89.743,82.860 89.100 C 84.015 87.246,84.377 85.909,83.265 87.607 M332.915 88.208 C 332.915 88.466,333.056 88.765,333.229 88.871 C 333.401 88.978,333.542 88.854,333.542 88.595 C 333.542 88.336,333.401 88.038,333.229 87.931 C 333.056 87.824,332.915 87.949,332.915 88.208 M333.856 89.714 C 333.856 89.984,334.067 90.381,334.326 90.596 C 334.924 91.092,334.918 90.626,334.316 89.830 C 333.948 89.343,333.856 89.320,333.856 89.714 M273.824 90.500 C 273.480 90.590,272.716 91.142,272.126 91.727 C 271.537 92.312,270.960 92.790,270.844 92.790 C 270.292 92.790,269.011 96.010,268.661 98.276 C 268.186 101.357,267.723 102.520,266.631 103.379 C 266.167 103.744,263.540 106.223,260.794 108.887 C 255.341 114.177,254.866 114.990,256.572 116.108 C 258.065 117.086,258.685 116.794,262.862 113.145 C 268.466 108.251,270.710 106.751,274.346 105.468 C 280.365 103.344,283.391 94.896,279.071 92.279 C 278.599 91.994,277.844 91.508,277.394 91.200 C 276.486 90.580,274.791 90.247,273.824 90.500 M215.253 91.534 C 213.181 93.997,212.549 99.117,214.122 100.690 C 216.635 103.204,220.125 99.579,220.125 94.455 C 220.125 91.250,217.046 89.404,215.253 91.534 M335.311 92.780 C 335.613 93.292,335.908 93.663,335.967 93.605 C 336.157 93.415,335.332 91.850,335.042 91.850 C 334.887 91.850,335.008 92.268,335.311 92.780 M78.056 96.630 C 78.056 96.903,77.880 97.191,77.665 97.270 C 77.374 97.377,77.363 97.510,77.625 97.789 C 77.893 98.075,78.028 97.963,78.189 97.321 C 78.305 96.857,78.323 96.400,78.228 96.306 C 78.134 96.211,78.056 96.357,78.056 96.630 M337.001 96.925 C 336.995 97.217,337.141 97.548,337.325 97.662 C 337.877 98.003,337.955 97.643,337.468 96.999 C 337.066 96.469,337.009 96.460,337.001 96.925 M77.237 98.986 C 76.735 99.316,76.372 100.627,76.781 100.627 C 76.965 100.627,77.116 100.373,77.116 100.063 C 77.116 99.752,77.285 99.329,77.492 99.122 C 77.911 98.704,77.775 98.631,77.237 98.986 M338.003 100.059 C 338.071 100.264,338.295 100.487,338.499 100.555 C 338.729 100.632,338.799 100.488,338.681 100.183 C 338.463 99.613,337.815 99.495,338.003 100.059 M199.060 101.470 C 194.489 103.092,193.831 107.619,198.043 108.471 C 200.380 108.943,201.113 109.438,201.582 110.858 C 205.316 122.173,218.530 125.294,223.487 116.033 C 223.943 115.181,225.094 115.168,226.915 115.994 C 231.325 117.995,232.540 111.878,228.681 107.106 C 228.239 106.560,227.565 105.727,227.183 105.256 C 226.801 104.784,225.946 104.177,225.282 103.906 L 224.074 103.413 222.852 104.698 C 222.180 105.404,221.630 106.278,221.630 106.638 C 221.630 108.068,220.824 109.839,219.539 111.232 C 218.796 112.037,218.187 112.788,218.185 112.901 C 218.173 113.662,215.128 115.088,213.870 114.922 C 210.007 114.411,208.447 112.374,206.401 105.172 C 205.501 102.006,202.217 100.350,199.060 101.470 M338.871 102.551 C 338.871 102.648,339.026 103.172,339.216 103.715 C 339.605 104.831,340.284 105.089,339.956 103.997 C 339.759 103.340,338.871 102.157,338.871 102.551 M76.054 103.705 C 75.693 104.289,75.616 105.647,75.932 105.843 C 76.119 105.958,76.185 105.911,76.077 105.737 C 75.970 105.564,76.085 105.154,76.332 104.827 C 76.580 104.500,76.787 104.056,76.793 103.840 C 76.804 103.401,76.299 103.309,76.054 103.705 M340.047 106.164 C 340.263 106.251,340.439 106.601,340.439 106.941 C 340.439 107.282,340.580 107.473,340.753 107.366 C 341.164 107.112,340.561 105.947,340.036 105.981 C 339.749 106.000,339.752 106.045,340.047 106.164 M73.992 108.638 C 72.974 110.416,72.726 111.096,72.995 111.365 C 73.328 111.698,73.529 111.140,73.391 110.266 C 73.371 110.137,73.478 110.031,73.630 110.031 C 73.781 110.031,74.091 109.573,74.317 109.013 C 74.544 108.452,74.824 107.923,74.940 107.837 C 75.183 107.656,75.651 106.270,75.469 106.270 C 75.402 106.270,74.737 107.335,73.992 108.638 M341.087 109.248 C 341.089 109.801,341.983 111.172,341.995 110.640 C 342.001 110.371,341.799 109.877,341.546 109.543 C 341.293 109.208,341.086 109.075,341.087 109.248 M71.600 112.618 C 71.317 113.178,70.867 113.884,70.602 114.187 C 70.336 114.490,70.205 114.824,70.311 114.930 C 70.545 115.164,71.280 114.416,71.414 113.806 C 71.468 113.563,71.739 113.198,72.017 112.995 C 72.569 112.591,72.838 111.599,72.394 111.599 C 72.241 111.599,71.884 112.057,71.600 112.618 M342.137 113.270 C 342.238 113.586,342.320 113.974,342.320 114.132 C 342.320 114.291,342.461 114.420,342.633 114.420 C 343.087 114.420,343.019 114.001,342.451 113.304 C 341.997 112.748,341.971 112.745,342.137 113.270 M68.989 115.955 C 68.570 116.537,68.497 116.928,68.809 116.928 C 68.895 116.928,68.953 116.835,68.937 116.721 C 68.922 116.607,69.134 116.389,69.408 116.235 C 69.682 116.082,69.906 115.822,69.906 115.658 C 69.906 115.171,69.447 115.319,68.989 115.955 M67.616 118.568 C 67.324 119.184,67.085 119.842,67.085 120.032 C 67.085 120.221,66.960 120.376,66.808 120.376 C 66.655 120.376,66.460 120.648,66.373 120.980 C 66.262 121.403,66.345 121.533,66.650 121.416 C 66.889 121.325,67.085 121.053,67.085 120.813 C 67.085 120.573,67.234 120.376,67.417 120.376 C 67.599 120.376,67.658 120.229,67.546 120.049 C 67.435 119.869,67.577 119.367,67.861 118.933 C 68.145 118.499,68.326 117.987,68.262 117.796 C 68.199 117.605,67.908 117.953,67.616 118.568 M343.140 117.810 C 343.026 117.994,343.218 118.611,343.566 119.182 C 344.290 120.370,344.404 119.992,343.773 118.492 C 343.537 117.929,343.254 117.625,343.140 117.810 M65.764 122.492 C 65.502 122.794,65.292 123.288,65.298 123.591 C 65.313 124.388,66.305 123.457,66.371 122.583 C 66.429 121.803,66.371 121.795,65.764 122.492 M343.887 123.492 C 343.887 123.655,344.031 123.876,344.206 123.984 C 344.381 124.093,344.461 124.284,344.383 124.410 C 344.179 124.741,344.753 125.571,345.009 125.314 C 345.278 125.046,344.539 123.197,344.163 123.197 C 344.011 123.197,343.887 123.330,343.887 123.492 M64.809 124.988 C 64.720 125.296,64.546 125.795,64.422 126.097 C 64.263 126.483,64.343 126.646,64.690 126.646 C 65.000 126.646,65.117 126.471,65.004 126.176 C 64.904 125.917,64.967 125.705,65.142 125.705 C 65.318 125.705,65.431 125.498,65.394 125.244 C 65.286 124.510,64.984 124.377,64.809 124.988 M345.141 130.076 C 345.141 130.691,345.671 131.236,345.974 130.933 C 346.220 130.687,345.770 129.467,345.433 129.467 C 345.273 129.467,345.141 129.741,345.141 130.076 M63.288 130.956 C 63.061 132.479,63.067 133.229,63.307 133.229 C 63.467 133.229,63.593 132.982,63.587 132.680 C 63.582 132.379,63.653 131.814,63.746 131.426 C 63.838 131.038,63.781 130.721,63.618 130.721 C 63.456 130.721,63.307 130.827,63.288 130.956 M346.009 133.215 C 345.792 133.987,345.922 134.433,346.264 134.092 C 346.364 133.992,346.396 133.580,346.336 133.177 L 346.225 132.445 346.009 133.215 M62.560 134.532 C 62.150 135.227,62.076 135.582,62.326 135.666 C 62.591 135.754,62.601 135.974,62.362 136.467 C 62.059 137.094,62.084 137.089,62.683 136.401 C 63.201 135.806,63.256 135.564,62.956 135.202 C 62.661 134.847,62.668 134.694,62.989 134.495 C 63.215 134.356,63.345 134.079,63.279 133.880 C 63.213 133.682,62.889 133.975,62.560 134.532 M346.299 137.600 C 346.392 137.954,346.593 138.245,346.745 138.245 C 347.168 138.245,347.075 137.738,346.576 137.325 C 346.211 137.021,346.161 137.070,346.299 137.600 M61.832 138.950 C 61.461 139.414,61.020 140.752,61.239 140.752 C 61.677 140.752,62.382 140.334,62.382 140.073 C 62.382 139.909,62.220 139.876,62.021 139.999 C 61.773 140.152,61.745 140.083,61.933 139.782 C 62.211 139.337,62.404 138.558,62.236 138.558 C 62.187 138.558,62.005 138.734,61.832 138.950 M346.814 139.889 C 346.842 140.707,346.971 141.377,347.100 141.378 C 347.397 141.380,347.353 140.213,347.018 139.185 C 346.820 138.578,346.774 138.737,346.814 139.889 M61.338 141.275 C 61.009 141.603,61.093 142.320,61.461 142.320 C 61.643 142.320,61.696 142.163,61.577 141.971 C 61.459 141.780,61.556 141.500,61.794 141.349 C 62.031 141.199,62.073 141.073,61.886 141.071 C 61.699 141.068,61.452 141.160,61.338 141.275 M60.815 143.435 C 60.815 143.877,60.943 144.159,61.099 144.062 C 61.255 143.966,61.309 143.605,61.219 143.260 C 60.994 142.397,60.815 142.475,60.815 143.435 M347.452 146.289 C 347.532 146.778,347.609 147.645,347.623 148.216 C 347.638 148.822,347.779 149.173,347.962 149.060 C 348.354 148.818,348.375 147.434,347.992 147.197 C 347.836 147.100,347.777 146.755,347.862 146.430 C 347.947 146.105,347.857 145.740,347.662 145.619 C 347.418 145.469,347.352 145.679,347.452 146.289 M60.339 147.684 C 60.134 148.898,60.419 153.792,60.680 153.531 C 60.747 153.464,60.865 151.832,60.943 149.902 C 61.083 146.418,60.756 145.216,60.339 147.684 M347.912 152.352 C 347.853 153.386,347.911 154.233,348.041 154.233 C 348.170 154.232,348.276 153.386,348.276 152.351 C 348.276 149.923,348.049 149.923,347.912 152.352 M60.188 157.367 C 60.188 159.321,60.270 160.838,60.369 160.738 C 60.627 160.481,60.655 154.281,60.399 154.025 C 60.283 153.909,60.188 155.413,60.188 157.367 M347.886 155.956 C 347.803 156.387,347.857 156.740,348.006 156.740 C 348.154 156.740,348.276 156.387,348.276 155.956 C 348.276 155.525,348.222 155.172,348.156 155.172 C 348.090 155.172,347.968 155.525,347.886 155.956 M348.390 160.031 C 348.391 161.755,348.444 162.421,348.507 161.510 C 348.571 160.599,348.570 159.188,348.506 158.375 C 348.442 157.562,348.390 158.307,348.390 160.031 M60.365 161.704 C 60.235 162.107,60.236 162.954,60.368 163.585 C 60.499 164.217,60.583 164.839,60.554 164.969 C 60.525 165.098,60.713 165.204,60.972 165.204 C 61.520 165.204,61.519 165.283,61.002 162.853 C 60.670 161.296,60.561 161.098,60.365 161.704 M347.925 165.586 C 348.069 166.456,348.114 166.500,348.212 165.873 C 348.276 165.465,348.200 165.002,348.042 164.844 C 347.868 164.670,347.822 164.963,347.925 165.586 M60.939 168.214 C 61.057 169.576,61.209 171.476,61.278 172.437 C 61.436 174.663,61.738 175.862,62.140 175.862 C 62.313 175.862,62.382 176.144,62.292 176.489 C 62.202 176.833,62.235 177.181,62.366 177.262 C 62.668 177.449,62.519 173.829,62.203 173.317 C 61.975 172.949,61.834 171.710,61.730 169.164 C 61.695 168.304,61.595 168.077,61.386 168.381 C 61.193 168.661,61.160 168.360,61.289 167.509 C 61.421 166.639,61.361 166.131,61.106 165.974 C 60.814 165.793,60.775 166.312,60.939 168.214 M347.640 167.085 C 347.625 167.343,347.560 168.190,347.496 168.966 L 347.378 170.376 347.849 169.056 C 348.190 168.100,348.230 167.580,347.994 167.175 C 347.738 166.736,347.662 166.716,347.640 167.085 M346.491 172.727 C 346.286 173.269,346.260 173.668,346.430 173.668 C 346.674 173.668,347.335 172.393,347.335 171.923 C 347.335 171.424,346.785 171.948,346.491 172.727 M345.455 176.176 C 345.455 176.348,345.478 176.524,345.508 176.567 C 345.537 176.611,345.391 176.963,345.183 177.351 C 344.975 177.739,344.929 178.056,345.080 178.056 C 345.362 178.056,346.082 176.694,346.082 176.161 C 346.082 175.996,345.940 175.862,345.768 175.862 C 345.596 175.862,345.455 176.003,345.455 176.176 M62.069 181.460 C 62.069 182.671,62.191 183.738,62.340 183.830 C 62.490 183.922,62.547 184.336,62.468 184.749 C 62.338 185.428,63.111 187.461,63.499 187.461 C 63.587 187.461,63.531 187.214,63.376 186.912 C 63.221 186.611,63.164 186.168,63.249 185.928 C 63.357 185.626,63.272 185.572,62.972 185.753 C 62.619 185.966,62.611 185.925,62.928 185.533 C 63.142 185.268,63.214 184.949,63.088 184.823 C 62.962 184.697,62.856 183.451,62.852 182.055 C 62.847 180.322,62.722 179.476,62.457 179.387 C 62.173 179.293,62.069 179.849,62.069 181.460 M344.248 181.505 C 344.049 182.076,344.037 182.445,344.217 182.445 C 344.491 182.445,344.640 181.991,344.551 181.426 C 344.531 181.297,344.655 181.191,344.828 181.191 C 345.000 181.191,345.141 181.050,345.141 180.878 C 345.141 180.204,344.558 180.613,344.248 181.505 M343.681 184.203 C 343.749 184.567,343.676 185.096,343.517 185.379 C 343.340 185.696,343.343 185.893,343.525 185.893 C 344.014 185.893,344.201 185.000,343.868 184.248 C 343.580 183.597,343.566 183.593,343.681 184.203 M342.923 187.173 C 342.699 188.430,342.560 188.887,342.175 189.632 C 341.750 190.453,341.805 190.909,342.329 190.909 C 342.595 190.909,343.323 187.420,343.103 187.200 C 343.017 187.113,342.936 187.102,342.923 187.173 M63.159 192.085 C 63.242 193.593,63.372 195.110,63.449 195.455 C 63.526 195.799,63.599 196.258,63.612 196.473 C 63.626 196.689,63.794 196.865,63.986 196.865 C 64.208 196.865,64.253 196.606,64.108 196.160 C 63.983 195.772,63.847 194.255,63.806 192.790 C 63.713 189.425,63.701 189.342,63.323 189.342 C 63.126 189.342,63.065 190.364,63.159 192.085 M341.614 192.080 C 341.316 192.664,341.388 194.197,341.691 193.730 C 341.905 193.401,341.998 193.381,342.001 193.662 C 342.004 193.883,341.795 194.145,341.536 194.244 C 340.805 194.524,341.856 199.687,342.644 199.687 C 342.757 199.687,342.836 200.519,342.820 201.538 C 342.803 202.556,342.896 203.323,343.025 203.243 C 343.370 203.030,343.312 199.756,342.960 199.538 C 342.796 199.436,342.741 199.144,342.839 198.889 C 342.937 198.633,342.833 198.203,342.607 197.931 C 342.336 197.604,342.207 196.548,342.226 194.799 C 342.252 192.484,341.993 191.336,341.614 192.080 M63.965 197.649 C 63.957 198.115,64.516 198.911,64.713 198.714 C 64.807 198.620,64.678 198.272,64.427 197.939 C 64.175 197.607,63.967 197.476,63.965 197.649 M64.505 199.421 C 64.265 200.048,64.542 201.254,64.927 201.254 C 65.241 201.254,65.239 200.823,64.923 199.687 C 64.748 199.057,64.666 199.005,64.505 199.421 M65.512 202.508 C 65.255 203.460,65.320 203.997,65.750 204.473 C 66.032 204.784,66.283 205.323,66.309 205.670 C 66.376 206.589,67.247 207.404,67.568 206.848 C 67.703 206.615,67.691 206.537,67.541 206.673 C 67.393 206.808,66.884 205.892,66.412 204.635 C 65.940 203.379,65.535 202.422,65.512 202.508 M342.227 204.624 C 342.136 205.098,342.127 205.552,342.208 205.634 C 342.427 205.855,342.936 204.937,342.942 204.310 C 342.950 203.438,342.410 203.675,342.227 204.624 M341.505 207.022 C 341.390 207.321,341.456 207.725,341.651 207.921 C 342.090 208.359,342.121 208.885,341.693 208.621 C 341.281 208.366,341.293 208.970,341.715 209.759 C 341.953 210.205,341.952 210.503,341.709 210.795 C 341.522 211.021,341.457 211.435,341.564 211.716 C 341.672 211.996,341.623 212.226,341.456 212.226 C 341.289 212.226,341.220 212.578,341.303 213.009 C 341.504 214.062,341.979 214.008,341.988 212.931 C 341.992 212.457,342.084 210.964,342.193 209.612 C 342.389 207.185,342.001 205.727,341.505 207.022 M67.085 207.796 C 67.085 207.971,67.226 208.201,67.398 208.307 C 67.571 208.414,67.712 208.751,67.712 209.057 C 67.712 209.363,67.910 209.613,68.152 209.613 C 68.504 209.613,68.520 209.486,68.230 208.972 C 67.722 208.073,67.085 207.418,67.085 207.796 M68.666 210.999 C 68.859 211.358,69.079 211.590,69.155 211.514 C 69.374 211.294,68.930 210.345,68.607 210.345 C 68.447 210.345,68.474 210.639,68.666 210.999 M69.483 212.463 C 69.382 212.626,69.657 213.239,70.094 213.825 C 70.531 214.411,71.165 215.490,71.502 216.223 C 71.840 216.955,72.183 217.555,72.265 217.555 C 72.575 217.555,72.397 216.642,72.009 216.245 C 71.786 216.017,71.430 215.407,71.218 214.888 C 70.630 213.448,69.688 212.131,69.483 212.463 M341.275 214.316 C 340.945 214.646,341.032 216.301,341.379 216.301 C 341.552 216.301,341.695 216.125,341.697 215.909 C 341.699 215.694,341.786 215.200,341.890 214.812 C 342.070 214.142,341.726 213.865,341.275 214.316 M340.466 219.180 C 340.451 219.471,340.276 220.106,340.077 220.591 C 339.573 221.821,339.509 222.257,339.832 222.257 C 340.429 222.257,341.041 220.485,340.764 219.559 C 340.615 219.060,340.481 218.890,340.466 219.180 M73.361 219.479 C 73.357 219.762,73.632 220.326,73.971 220.733 C 74.804 221.734,74.814 220.814,73.981 219.749 C 73.520 219.159,73.366 219.092,73.361 219.479 M339.254 222.962 C 339.077 223.178,338.884 223.707,338.824 224.138 C 338.764 224.569,338.592 225.011,338.441 225.120 C 338.291 225.230,338.235 225.512,338.317 225.747 C 338.401 225.987,338.785 225.486,339.191 224.608 C 339.590 223.746,339.971 222.935,340.039 222.806 C 340.245 222.414,339.598 222.543,339.254 222.962 M75.862 223.365 C 75.862 223.613,76.862 225.186,77.251 225.549 C 77.435 225.721,78.135 226.677,78.806 227.673 C 79.477 228.670,80.147 229.560,80.295 229.651 C 80.758 229.937,80.589 229.223,80.072 228.706 C 79.801 228.435,79.677 228.213,79.796 228.213 C 79.915 228.213,79.493 227.578,78.857 226.803 C 78.221 226.027,77.788 225.392,77.895 225.392 C 78.001 225.392,77.729 225.058,77.289 224.651 C 76.849 224.243,76.489 223.749,76.489 223.553 C 76.489 223.358,76.348 223.197,76.176 223.197 C 76.003 223.197,75.862 223.273,75.862 223.365 M337.162 226.943 C 336.706 227.447,336.653 227.687,336.935 227.970 C 337.218 228.252,337.304 228.220,337.304 227.832 C 337.304 227.553,337.466 227.271,337.665 227.205 C 337.863 227.139,337.965 226.905,337.892 226.684 C 337.798 226.404,337.580 226.481,337.162 226.943 M336.473 228.415 C 336.583 228.613,336.463 228.855,336.205 228.954 C 335.947 229.053,335.737 229.285,335.737 229.470 C 335.737 229.879,334.505 231.664,333.856 232.196 C 333.597 232.408,333.518 232.586,333.681 232.592 C 333.843 232.597,333.702 232.821,333.367 233.089 C 332.774 233.564,332.776 233.569,333.415 233.261 C 334.066 232.948,335.737 230.981,335.737 230.527 C 335.737 230.397,336.045 229.963,336.422 229.562 C 336.989 228.959,337.035 228.764,336.690 228.444 C 336.430 228.203,336.348 228.192,336.473 228.415 M81.644 231.563 C 81.910 232.113,82.260 232.644,82.421 232.744 C 82.934 233.061,83.034 232.462,82.574 231.833 C 82.331 231.500,82.132 231.353,82.132 231.505 C 82.132 231.657,81.913 231.507,81.646 231.173 C 81.208 230.623,81.208 230.661,81.644 231.563 M83.072 233.805 C 83.072 234.202,83.212 234.434,83.386 234.326 C 83.558 234.219,83.706 234.317,83.714 234.543 C 83.723 234.768,84.286 235.517,84.966 236.207 C 85.646 236.897,86.203 237.708,86.205 238.009 C 86.206 238.311,86.318 238.558,86.453 238.558 C 86.589 238.558,87.173 239.158,87.751 239.890 C 88.329 240.623,88.711 240.962,88.600 240.642 C 88.393 240.052,88.133 239.686,85.804 236.715 C 85.077 235.788,84.165 234.593,83.777 234.059 C 83.118 233.152,83.072 233.136,83.072 233.805 M332.116 234.573 C 331.935 234.782,331.517 235.411,331.186 235.972 C 330.856 236.532,330.470 236.991,330.329 236.991 C 329.947 236.991,327.900 239.111,327.900 239.506 C 327.900 239.695,327.737 239.748,327.538 239.625 C 327.297 239.476,327.262 239.541,327.433 239.817 C 327.698 240.246,331.819 236.259,332.580 234.836 C 332.964 234.121,332.658 233.947,332.116 234.573 M326.590 240.561 C 325.760 241.432,325.089 242.320,325.259 242.320 C 325.769 242.320,326.646 241.608,326.646 241.193 C 326.646 240.930,326.787 240.803,326.959 240.909 C 327.132 241.016,327.273 240.883,327.273 240.614 C 327.273 240.012,327.123 240.000,326.590 240.561 M89.342 241.536 C 89.556 241.795,89.935 242.006,90.182 242.006 C 90.430 242.006,90.555 242.133,90.459 242.287 C 90.291 242.559,90.829 242.907,91.295 242.828 C 91.421 242.807,91.746 243.107,92.018 243.495 C 92.290 243.883,92.716 244.201,92.964 244.201 C 93.213 244.201,93.417 244.346,93.417 244.524 C 93.417 244.702,93.670 244.949,93.979 245.073 C 94.999 245.481,97.080 247.138,97.367 247.771 C 97.522 248.112,97.861 248.457,98.119 248.536 C 98.490 248.650,98.473 248.550,98.041 248.062 C 97.739 247.721,97.492 247.301,97.492 247.129 C 97.492 246.956,97.139 246.626,96.708 246.395 C 96.277 246.164,95.925 245.860,95.925 245.719 C 95.925 245.578,95.431 245.257,94.828 245.005 C 94.224 244.752,93.730 244.398,93.730 244.217 C 93.730 244.035,93.596 243.887,93.431 243.887 C 93.267 243.887,92.786 243.570,92.364 243.182 C 90.655 241.612,88.375 240.371,89.342 241.536 M324.608 243.260 C 324.296 243.605,324.119 243.887,324.215 243.887 C 324.311 243.887,323.980 244.325,323.480 244.861 C 322.502 245.908,322.157 247.128,323.048 246.389 C 323.311 246.171,323.471 245.937,323.403 245.869 C 323.335 245.801,323.692 245.305,324.195 244.767 C 325.261 243.625,325.846 242.633,325.451 242.633 C 325.300 242.633,324.920 242.915,324.608 243.260 M321.439 247.426 C 321.248 247.635,320.430 248.392,319.621 249.110 C 318.812 249.827,318.267 250.486,318.411 250.575 C 318.555 250.664,319.585 249.907,320.700 248.893 C 321.815 247.879,322.516 247.048,322.257 247.048 C 321.998 247.047,321.630 247.217,321.439 247.426 M98.119 249.143 C 98.119 249.552,104.878 256.146,105.085 255.939 C 105.283 255.741,101.114 251.370,100.771 251.417 C 100.667 251.431,100.168 250.871,99.662 250.173 C 98.821 249.011,98.119 248.543,98.119 249.143 M316.693 252.212 C 316.477 252.446,316.301 252.785,316.301 252.965 C 316.301 253.145,316.175 253.292,316.021 253.292 C 315.867 253.292,315.649 253.538,315.536 253.840 C 315.415 254.162,315.740 253.983,316.324 253.405 C 316.870 252.863,317.265 252.278,317.201 252.103 C 317.132 251.915,316.925 251.960,316.693 252.212 M312.764 256.599 C 311.945 257.362,310.925 258.215,310.497 258.496 C 310.068 258.777,309.720 259.166,309.723 259.362 C 309.725 259.558,309.864 259.506,310.031 259.248 C 310.198 258.989,310.342 258.918,310.350 259.091 C 310.358 259.263,310.572 259.131,310.825 258.796 C 311.078 258.461,311.285 258.296,311.285 258.430 C 311.285 258.563,312.010 257.951,312.896 257.070 C 314.895 255.081,314.792 254.711,312.764 256.599 M106.960 257.546 C 107.520 258.162,108.025 258.528,108.081 258.360 C 108.199 258.005,106.702 256.426,106.248 256.426 C 106.079 256.426,106.399 256.930,106.960 257.546 M109.661 259.914 C 110.405 260.616,111.097 261.108,111.198 261.007 C 111.298 260.906,111.006 260.529,110.548 260.168 C 110.089 259.808,109.514 259.312,109.268 259.067 C 109.023 258.821,108.706 258.624,108.565 258.629 C 108.423 258.633,108.916 259.211,109.661 259.914 M308.726 259.772 C 308.439 259.848,308.124 260.117,308.027 260.370 C 307.887 260.737,307.973 260.765,308.454 260.507 C 308.938 260.248,309.709 259.461,309.345 259.597 C 309.291 259.617,309.013 259.696,308.726 259.772 M304.544 261.874 C 304.234 262.101,304.109 262.366,304.266 262.464 C 304.424 262.561,304.806 262.455,305.116 262.228 C 305.426 262.001,305.551 261.736,305.394 261.639 C 305.237 261.542,304.854 261.648,304.544 261.874 M112.853 262.362 C 113.284 262.733,114.095 263.474,114.655 264.008 C 115.216 264.542,115.674 264.844,115.674 264.679 C 115.674 264.282,114.182 262.912,113.009 262.232 L 112.069 261.687 112.853 262.362 M300.735 264.120 C 300.443 264.881,300.785 264.954,301.409 264.265 C 301.928 263.691,301.932 263.636,301.449 263.636 C 301.159 263.636,300.837 263.854,300.735 264.120 M116.113 264.840 C 116.484 265.440,117.656 265.976,117.487 265.469 C 117.409 265.237,117.217 265.045,117.059 265.042 C 116.900 265.040,116.573 264.912,116.331 264.759 C 116.029 264.568,115.961 264.593,116.113 264.840 M298.746 265.204 C 298.497 265.357,298.398 265.587,298.525 265.714 C 298.652 265.842,298.921 265.781,299.122 265.580 C 299.596 265.106,299.332 264.842,298.746 265.204 M120.063 267.702 C 120.063 267.869,120.310 267.917,120.611 267.809 C 120.913 267.700,121.055 267.727,120.927 267.868 C 120.642 268.183,121.287 269.021,121.645 268.799 C 121.787 268.712,122.258 268.995,122.693 269.430 C 123.127 269.864,123.636 270.219,123.824 270.219 C 124.012 270.219,124.537 270.565,124.992 270.986 C 125.447 271.408,125.937 271.681,126.081 271.592 C 126.494 271.336,126.167 271.031,124.683 270.291 C 123.924 269.911,123.045 269.317,122.731 268.970 C 122.417 268.623,121.985 268.339,121.772 268.339 C 121.558 268.339,121.302 268.127,121.203 267.868 C 121.005 267.352,120.063 267.215,120.063 267.702 M291.366 268.359 C 291.253 268.543,291.235 268.769,291.327 268.861 C 291.552 269.086,292.163 268.690,292.163 268.320 C 292.163 267.919,291.622 267.946,291.366 268.359 M288.480 269.289 C 288.092 269.445,287.774 269.663,287.774 269.773 C 287.774 270.044,289.422 269.623,289.796 269.257 C 290.175 268.887,289.436 268.905,288.480 269.289 M284.822 270.421 C 284.714 270.704,284.534 270.845,284.422 270.734 C 284.189 270.500,283.072 271.430,283.072 271.858 C 283.072 272.016,283.444 271.853,283.898 271.496 C 284.352 271.139,284.899 270.846,285.114 270.846 C 285.328 270.846,285.679 270.635,285.893 270.376 C 286.218 269.985,286.178 269.906,285.652 269.906 C 285.304 269.906,284.931 270.138,284.822 270.421 M127.664 272.489 C 127.796 272.886,128.840 273.105,128.840 272.736 C 128.840 272.599,128.550 272.411,128.195 272.318 C 127.809 272.217,127.596 272.286,127.664 272.489 M281.498 272.578 C 280.912 273.285,281.252 273.366,281.951 272.687 C 282.283 272.364,282.406 272.100,282.225 272.100 C 282.043 272.100,281.717 272.315,281.498 272.578 M129.533 273.397 C 129.677 273.828,131.034 274.393,131.034 274.021 C 131.034 273.882,130.669 273.602,130.223 273.398 C 129.603 273.116,129.440 273.116,129.533 273.397 M133.072 275.186 C 133.245 275.362,134.655 276.158,136.207 276.955 C 137.759 277.752,138.695 278.115,138.288 277.760 C 137.881 277.406,137.364 277.116,137.139 277.116 C 136.914 277.116,136.682 277.010,136.625 276.881 C 136.567 276.752,135.674 276.245,134.639 275.756 C 133.605 275.267,132.900 275.010,133.072 275.186 M277.734 275.403 C 277.204 276.041,277.453 276.223,278.154 275.710 C 278.466 275.482,278.587 275.213,278.424 275.112 C 278.261 275.011,277.950 275.142,277.734 275.403 M275.549 276.573 C 274.870 276.855,274.843 276.917,275.347 277.036 C 275.667 277.113,276.081 277.023,276.266 276.837 C 276.772 276.332,276.433 276.207,275.549 276.573 M139.677 278.707 C 140.058 279.128,140.310 279.226,140.391 278.985 C 140.459 278.779,140.322 278.488,140.085 278.338 C 139.303 277.843,139.078 278.046,139.677 278.707 M272.163 278.433 C 271.572 279.024,271.724 279.462,272.335 278.930 C 272.637 278.667,273.096 278.374,273.354 278.279 C 273.685 278.157,273.634 278.099,273.182 278.081 C 272.828 278.068,272.370 278.226,272.163 278.433 M157.837 279.449 C 156.240 279.725,155.799 279.897,156.218 280.083 C 156.861 280.368,160.188 279.679,160.188 279.260 C 160.188 279.115,160.153 279.014,160.110 279.034 C 160.067 279.054,159.044 279.241,157.837 279.449 M162.382 279.373 C 162.382 279.511,162.636 279.624,162.947 279.624 C 163.257 279.624,163.662 279.774,163.846 279.958 C 164.083 280.195,164.231 280.159,164.356 279.833 C 164.486 279.497,164.245 279.340,163.458 279.248 C 162.866 279.179,162.382 279.235,162.382 279.373 M164.577 280.214 C 164.577 280.545,166.604 282.132,167.027 282.132 C 167.191 282.132,167.406 282.443,167.506 282.823 C 167.605 283.204,167.780 283.421,167.895 283.307 C 168.009 283.192,168.363 283.410,168.681 283.791 C 168.998 284.171,169.263 284.338,169.269 284.161 C 169.284 283.688,166.141 280.529,165.840 280.715 C 165.699 280.803,165.502 280.663,165.403 280.406 C 165.210 279.903,164.577 279.756,164.577 280.214 M267.442 280.888 C 267.035 281.227,266.850 281.505,267.031 281.505 C 267.213 281.505,267.450 281.361,267.558 281.186 C 267.666 281.011,267.886 280.949,268.047 281.048 C 268.207 281.147,268.339 281.008,268.339 280.740 C 268.339 280.136,268.346 280.135,267.442 280.888 M263.163 282.450 C 263.055 282.625,262.835 282.688,262.674 282.588 C 262.514 282.489,262.382 282.549,262.382 282.722 C 262.382 283.277,263.008 283.441,263.201 282.937 C 263.304 282.668,263.537 282.540,263.718 282.652 C 263.910 282.771,263.954 282.705,263.823 282.494 C 263.548 282.049,263.416 282.040,263.163 282.450 M253.683 284.963 C 253.295 285.119,252.978 285.321,252.978 285.413 C 252.978 285.717,253.477 285.586,254.094 285.120 C 254.787 284.595,254.690 284.558,253.683 284.963 M174.295 285.643 C 174.295 285.801,174.426 285.849,174.586 285.750 C 174.747 285.651,174.967 285.713,175.075 285.888 C 175.363 286.353,176.500 286.286,176.318 285.815 C 176.145 285.366,174.295 285.209,174.295 285.643 M176.881 285.972 C 177.021 286.391,181.191 286.572,181.191 286.158 C 181.191 286.036,180.415 285.961,179.467 285.993 C 178.518 286.024,177.742 285.944,177.743 285.815 C 177.743 285.686,177.520 285.580,177.247 285.580 C 176.974 285.580,176.809 285.756,176.881 285.972 M250.370 285.785 C 250.258 285.897,249.705 285.981,249.142 285.971 C 248.212 285.955,248.185 285.979,248.848 286.235 C 249.504 286.489,250.784 286.152,250.784 285.726 C 250.784 285.520,250.610 285.545,250.370 285.785 M183.072 286.552 C 183.072 286.741,184.155 287.133,184.708 287.143 C 184.832 287.145,184.853 286.938,184.755 286.683 C 184.584 286.237,183.072 286.119,183.072 286.552 M185.266 287.137 C 185.266 287.315,185.713 287.461,186.259 287.461 C 187.377 287.461,187.221 287.074,186.038 286.916 C 185.614 286.859,185.266 286.958,185.266 287.137 M187.466 287.226 C 187.462 287.652,187.722 287.773,188.636 287.769 C 189.448 287.766,189.675 287.678,189.370 287.485 C 189.127 287.331,188.725 287.283,188.476 287.379 C 188.228 287.474,187.900 287.355,187.747 287.115 C 187.526 286.764,187.469 286.787,187.466 287.226 M243.260 287.147 C 243.260 287.320,243.472 287.461,243.730 287.461 C 243.989 287.461,244.201 287.320,244.201 287.147 C 244.201 286.975,243.989 286.834,243.730 286.834 C 243.472 286.834,243.260 286.975,243.260 287.147 M192.439 287.484 C 191.792 287.884,192.155 288.010,194.514 288.202 C 195.721 288.300,197.625 288.475,198.746 288.590 C 199.867 288.705,200.680 288.688,200.553 288.553 C 200.426 288.417,199.721 288.266,198.986 288.217 C 197.531 288.121,195.788 287.861,193.997 287.475 C 193.368 287.339,192.667 287.343,192.439 287.484 M236.050 288.089 C 235.706 288.313,235.856 288.364,236.611 288.281 C 237.179 288.218,237.731 288.079,237.839 287.971 C 238.159 287.651,236.562 287.757,236.050 288.089 M204.314 288.623 C 204.704 288.698,205.268 288.695,205.568 288.617 C 205.868 288.538,205.549 288.477,204.859 288.480 C 204.169 288.484,203.924 288.548,204.314 288.623 M208.291 288.741 C 208.123 289.013,208.460 289.040,214.420 289.219 C 219.455 289.371,224.079 289.178,223.731 288.830 C 223.517 288.616,208.422 288.529,208.291 288.741 M228.918 288.617 C 229.220 288.696,229.714 288.696,230.016 288.617 C 230.317 288.538,230.071 288.474,229.467 288.474 C 228.864 288.474,228.617 288.538,228.918 288.617 M233.621 288.617 C 233.922 288.696,234.416 288.696,234.718 288.617 C 235.020 288.538,234.773 288.474,234.169 288.474 C 233.566 288.474,233.319 288.538,233.621 288.617 " stroke="none" fill="#2e250c" fill-rule="evenodd"></path></g></svg>